<?xml version="1.0" encoding="UTF-8"?> <svg xmlns="http://www.w3.org/2000/svg" width="60.301" height="46.033" viewBox="0 0 60.301 46.033"><path d="M284.251,70.543,306.831,48a.279.279,0,0,0-.2-.476H292.889l-16.127,16.1L260.647,47.539H246.9a.279.279,0,0,0-.2.476l22.574,22.533L246.7,93.085a.279.279,0,0,0,.2.476h13.673l16.2-16.168,16.166,16.136h13.677a.279.279,0,0,0,.2-.476Zm-7.489,3.887a3.882,3.882,0,1,1,3.882-3.882A3.886,3.886,0,0,1,276.762,74.43Z" transform="translate(-246.613 -47.528)" fill="#afcb08"></path></svg> 