<?xml version="1.0" encoding="UTF-8"?> <svg xmlns="http://www.w3.org/2000/svg" xmlns:xlink="http://www.w3.org/1999/xlink" version="1.1" width="1038.63" height="525.017" viewBox="0 0 1528.6 772.7"><path fill="#878787" d="M68.8,676.5c3.3,16.7,4.9,33.6,4.9,50.6c-0.9,12.4-3.2,14.5-4.2,14.8h10l10.5-32.7 c-3.2-10-8.5-19.2-15.7-26.9L68.8,676.5z"></path><path fill="#878787" d="M179.7,671.1c-0.6,2.4-1.8,4.5-3.6,6.3c-5.4,4.9-12.5,7.4-19.8,7.1c-7.2,0.4-14.1-2.2-19.4-7.1 c-0.5-0.6-1-1.2-1.4-1.9c-0.9,3.3-3.6,5.9-6.9,6.7c-5.8,0.9-10.6-5.9-13.1-15.7c-2.5-9.8,6.1-27.6,34.9-28.3 c16.6-0.4,29.4,6.9,30.6,14.8c1.2,3.6-0.4,7.6-3.8,9.4v0.1C179.9,664.4,180.9,668,179.7,671.1 M246.9,650.2h0.2 c-1.9-0.8-3.9-1.2-6-1.1c-3.9-4.7-7.1-9.9-9.7-15.4c-4.9-9.6-9.6-18.6-17.8-20.2c-12.3-2.3-44.1-1.5-63.3-1h-46.6h-0.3h-0.3 c-1.3-0.2-30-5.1-48.3-9.7c3.3-5.9,7-14.1,3.1-14.9c-3.9-0.8-11.4,4.6-16.2,8.6c-2.8-3-4.6-6.8-5.1-10.9c-0.3-2.6-0.6-10-4.2,0 c-1.8,4.4-1.1,9.5,1.8,13.3c-4.3,4.5-8,9.5-11,14.9c-4.7,8.1-10.2,15.7-16.3,22.8c-0.1,1.1,0.3,2.2,1,3c4.1,5.1,10.4,8,17,7.5 c3.6,0,7.1-0.6,10.5-1.7c2-0.6,4-0.9,6.1-1c10.5,0,16.6,8.9,24,19.2c0.1,0.1,0.2,0.2,0.3,0.3l0.4,0.6c4.2,5.9,8.8,11.5,13.8,16.6 c18.2,18.2,23.3,49.9,24.4,60.5h10v-46.6l2.7-0.8c6.6-1.8,13.2-3.1,20-4c6.3-0.9,13.5-1.4,20.7-1.1c1,2.4,2.5,4.7,4.3,6.6 c0.9,0.9,1.9,1.8,2.9,2.6c2.6,2,5.6,3.5,8.8,4.5v4.9c0,0.8,0.7,1.5,1.5,1.5c0.8,0,1.5-0.7,1.5-1.5v-4.2c0,0,0.1,0,0.1,0 c2,0.4,4.1,0.6,6.2,0.6c0.5,0,1,0,1.4,0v4.3c0,0.8,0.7,1.5,1.5,1.5c0.8,0,1.5-0.7,1.5-1.5v-4.6c1.4-0.2,2.9-0.5,4.3-0.9 c11.1,12.5,15.6,31,17.1,38.5h8.6v-92.9c0-7.8-1.2-19.6-3.9-24.6c-0.9-1.4-2-2.7-3.3-3.7c0.6,0,1.3,0.1,1.9,0.2 c4.8,0.9,8.8,8.7,12.7,16.3c3.1,7,7.4,13.4,12.7,19l-0.2,0.6c1.7,7.5,16.1,16.2,19.4,13.3C260.3,667.1,251.6,653.3,246.9,650.2"></path><path fill="#AFCA14" d="M125.7,678.9L125.7,678.9c-0.9-0.6-1.3-1.7-0.7-2.7l4-6.9c0.7-0.8,1.9-0.9,2.8-0.2c0.6,0.5,0.8,1.4,0.6,2.2 l-4,6.9C127.8,679.1,126.6,679.4,125.7,678.9"></path><path fill="#878787" d="M138,675.8c4.9,4.6,11.5,7,18.2,6.7c6.9,0.3,13.6-2.1,18.6-6.7H138z"></path><path fill="#878787" d="M167.5,704.2c-3.7-1.4-7-3.8-9.6-6.9c-1.5-1.8-2.8-3.9-3.8-6.1c-3.3,0-5.5,0-7.5,0.2 c0.2,3.9,26.9,42.1,14.3,50.6h12.6C173.9,741.8,167.5,704.3,167.5,704.2"></path><path fill="#878787" d="M130.6,675.8l-1.6,2.8c-0.4,0.6-1,1.1-1.7,1.3h-0.7c-0.5,0-1-0.1-1.4-0.4c-1.3-0.8-1.8-2.4-1-3.7h-3.3 c1.4,2.5,3.7,4.3,6.4,5.1c3.9,0.6,6.7-5.1,6.7-5.1L130.6,675.8z"></path><path fill="#AFCA0B" d="M97.5,531.8c-0.1,0-0.2,0-0.4,0c0,0,0,0,0,0h0c-0.1,0-0.1,0-0.2,0c-0.1,0-0.1,0-0.2,0c0,0-0.1,0-0.1,0 c-0.1,0-0.1,0-0.2,0c0,0-0.1,0-0.1,0c-0.1,0-0.1,0-0.2,0c0,0-0.1,0-0.1,0c-0.1,0-0.1,0-0.2,0.1c0,0-0.1,0-0.1,0 c-0.1,0-0.1,0.1-0.2,0.1c0,0-0.1,0-0.1,0.1c-0.1,0-0.1,0.1-0.2,0.1c0,0,0,0-0.1,0c-0.1,0-0.1,0.1-0.2,0.2c0,0,0,0-0.1,0 c-0.1,0.1-0.2,0.1-0.2,0.2c0,0,0,0,0,0c-0.1,0.1-0.2,0.1-0.2,0.2c0,0,0,0,0,0c-0.1,0.1-0.2,0.2-0.2,0.2c0,0,0,0,0,0 c-0.1,0.1-0.2,0.2-0.2,0.3c0,0,0,0,0,0c-0.1,0.1-0.2,0.2-0.2,0.3c0,0,0,0,0,0c-0.1,0.1-0.2,0.2-0.2,0.4c0,0,0,0,0,0 c-0.3,0.5-0.6,1-0.9,1.6c0,0,0,0,0,0c-0.1,0.3-0.3,0.6-0.4,0.9c0,0,0,0,0,0c-0.1,0.2-0.1,0.3-0.2,0.5c0,0,0,0,0,0 c-0.1,0.2-0.1,0.3-0.2,0.5c0,0,0,0,0,0c0,0.2-0.1,0.3-0.1,0.5c0,0,0,0,0,0c0,0.2-0.1,0.3-0.1,0.5c0,0,0,0.1,0,0.1 c0,0.2-0.1,0.3-0.1,0.5c0,0,0,0,0,0c0,0.2-0.1,0.4-0.1,0.5c0,0,0,0,0,0c0,0.2-0.1,0.4-0.1,0.5c0,0,0,0.1,0,0.1c0,0.2,0,0.3-0.1,0.5 c0,0.1,0,0.1,0,0.2c0,0.1,0,0.3,0,0.4c0,0.1,0,0.2,0,0.3c0,0.1,0,0.2,0,0.3c0,0.1,0,0.3,0,0.4c0,0.1,0,0.2,0,0.3c0,0.1,0,0.2,0,0.4 c0,0.1,0,0.2,0,0.3c0,0.2,0,0.4,0,0.6c0,0,0,0.1,0,0.1c0,6,1.9,11,4.6,12.5c0.3,0.1,0.6,0.3,0.8,0.3c0,0,0.1,0,0.1,0 c0.2,0,0.4,0.1,0.6,0.1h0c0.1,0,0.2,0,0.4,0v0c3.3-0.4,5.9-6,5.9-12.8C103.3,537.8,100.7,532.2,97.5,531.8"></path><path fill="#AFCA0B" d="M134.8,543.2c-0.8,0-1.4,0.6-1.4,1.4c0,0.8,0.6,1.4,1.4,1.4s1.4-0.6,1.4-1.4 C136.2,543.8,135.5,543.2,134.8,543.2"></path><path fill="#AFCA0B" d="M145.7,536.5l-8.2,8.2l8.2,8.2c0.1,0.1,0,0.2-0.1,0.2l-5,0l-5.9-5.9l-5.9,5.9l-5,0c-0.1,0-0.1-0.1-0.1-0.2 l8.2-8.2l-8.2-8.2c-0.1-0.1,0-0.2,0.1-0.2l5,0l5.8,5.9l5.9-5.8l5,0C145.7,536.3,145.8,536.4,145.7,536.5 M157.2,531.9l-56.3-0.2 c2.6,2.4,4.2,7.2,4.2,13.1c0,5.9-1.7,10.7-4.4,13.1l56.3,0.2c7.2,0,11.6-5.8,11.7-13C168.7,537.8,164.4,531.9,157.2,531.9"></path><path xmlns="http://www.w3.org/2000/svg" class="fadein" fill="#AFCA0B" d="M140.6,518.9c-0.7,0-1.5-0.3-2-0.8c-4.1-4.1-10.7-4.1-14.8-0.1c-1.1,1.1-2.9,1.1-4,0c-1.1-1.1-1.1-2.9,0-4 c6.3-6.3,16.6-6.2,22.9,0.1c1.1,1.1,1.1,2.9,0,4C142,518.6,141.3,518.9,140.6,518.9"></path><path xmlns="http://www.w3.org/2000/svg" class="fadein second" fill="#AFCA0B" d="M149.9,509.6c-0.7,0-1.5-0.3-2-0.8c-4.4-4.5-10.4-7-16.7-7c-6.3,0-12.2,2.4-16.7,6.8c-1.1,1.1-2.9,1.1-4,0 c-1.1-1.1-1.1-2.9,0-4c5.6-5.5,12.9-8.5,20.8-8.5c7.8,0,15.2,3.1,20.7,8.7c1.1,1.1,1.1,2.9,0,4C151.4,509.4,150.6,509.7,149.9,509.6 "></path><path xmlns="http://www.w3.org/2000/svg" class="fadein" fill="#AFCA0B" d="M422.3,421.4c-0.7,0-1.5-0.3-2-0.8c-4-4.1-10.7-4.1-14.7-0.1c-1.1,1.1-2.9,1.1-4,0c-1.1-1.1-1.1-2.9,0-4 c6.3-6.2,16.5-6.2,22.8,0.1c1.1,1.1,1.1,2.9,0,4C423.8,421.2,423.1,421.4,422.3,421.4"></path><path xmlns="http://www.w3.org/2000/svg" class="fadein second" fill="#AFCA0B" d="M431.6,412.2c-0.7,0-1.5-0.3-2-0.8c-4.4-4.5-10.3-6.9-16.6-6.9c-6.3,0-12.2,2.4-16.6,6.8 c-1.1,1.1-2.9,1.1-4,0c-1.1-1.1-1.1-2.9,0-4c5.5-5.5,12.9-8.5,20.7-8.5c7.8,0,15.1,3.1,20.6,8.6c1.1,1.1,1.1,2.9,0,4 C433.1,412,432.3,412.2,431.6,412.2"></path><path xmlns="http://www.w3.org/2000/svg" class="fadein" fill="#AFCA0B" d="M506.6,465.4c-0.7,0-1.4-0.3-1.9-0.8c-3.9-3.9-10.2-3.9-14-0.1c-1.1,1-2.8,1-3.8,0c-1-1.1-1-2.8,0-3.8 c6-6,15.7-5.9,21.7,0.1c1,1.1,1,2.8,0,3.8C508,465.2,507.3,465.4,506.6,465.4"></path><path xmlns="http://www.w3.org/2000/svg" class="fadein second" fill="#AFCA0B" d="M515.4,456.7c-0.7,0-1.4-0.3-1.9-0.8c-4.2-4.2-9.8-6.6-15.8-6.6s-11.6,2.3-15.8,6.5c-1.1,1-2.8,1-3.8,0 c-1-1.1-1-2.8,0-3.8c5.3-5.2,12.3-8.1,19.7-8.1c7.4,0,14.4,3,19.6,8.2c1,1.1,1,2.8,0,3.8C516.8,456.4,516.1,456.7,515.4,456.7"></path><path xmlns="http://www.w3.org/2000/svg" class="fadein second" fill="#AFCA0B" d="M887.7,543.1c0,0.6-0.2,1.1-0.6,1.5c-3.4,3.4-5.3,7.9-5.3,12.7s1.8,9.4,5.2,12.8c0.8,0.9,0.8,2.2,0,3.1 c-0.9,0.8-2.2,0.8-3.1,0c-4.2-4.2-6.5-9.9-6.5-15.9c0-6,2.4-11.6,6.6-15.8c0.9-0.8,2.2-0.8,3.1,0C887.5,542,887.7,542.5,887.7,543.1 "></path><path xmlns="http://www.w3.org/2000/svg" class="fadein" fill="#AFCA0B" d="M898.5,543.1c0,0.6-0.2,1.1-0.6,1.5c-3.4,3.4-5.3,7.9-5.3,12.7s1.8,9.4,5.2,12.8c0.8,0.9,0.8,2.2,0,3.1 c-0.9,0.8-2.2,0.8-3.1,0c-4.2-4.2-6.5-9.9-6.5-15.9c0-6,2.4-11.6,6.6-15.8c0.9-0.8,2.2-0.8,3.1,0C898.3,542,898.5,542.5,898.5,543.1 "></path><path xmlns="http://www.w3.org/2000/svg" class="fadein second" fill="#AFCA0B" d="M960.1,571.6c0-0.6,0.2-1.1,0.6-1.5c3.4-3.4,5.3-7.9,5.3-12.7s-1.8-9.4-5.2-12.8c-0.8-0.9-0.8-2.2,0-3.1 c0.9-0.8,2.2-0.8,3.1,0c4.2,4.2,6.5,9.9,6.5,15.9c0,6-2.4,11.6-6.6,15.8c-0.9,0.8-2.2,0.8-3.1,0 C960.3,572.7,960.1,572.2,960.1,571.6"></path><path xmlns="http://www.w3.org/2000/svg" class="fadein" fill="#AFCA0B" d="M949.4,571.6c0-0.6,0.2-1.1,0.6-1.5c3.4-3.4,5.3-7.9,5.3-12.7s-1.8-9.4-5.2-12.8c-0.8-0.9-0.8-2.2,0-3.1 c0.9-0.8,2.2-0.8,3.1,0c4.2,4.2,6.5,9.9,6.5,15.9c0,6-2.4,11.6-6.6,15.8c-0.9,0.8-2.2,0.8-3.1,0 C949.6,572.7,949.3,572.2,949.4,571.6"></path><path fill="#AFCA14" d="M140.6,454.1c-1.2-0.1-2-1.1-1.9-2.3c0.1-1.2,1.1-2,2.3-1.9c1.2,0.1,2,1.1,1.9,2.3c-0.1,1.1-1,1.9-2.1,1.9 C140.7,454.1,140.6,454.1,140.6,454.1 M146,452.1c0-1.2,0.9-2.1,2.1-2.1c1.2,0,2.1,0.9,2.1,2.1c0,1.2-0.9,2.1-2.1,2.1 C146.9,454.2,146,453.3,146,452.1 M153.3,452.1c0-1.2,0.9-2.1,2.1-2.1c1.2,0,2.1,0.9,2.1,2.1c0,1.2-0.9,2.1-2.1,2.1 C154.2,454.2,153.3,453.3,153.3,452.1 M160.6,452.1c0-1.2,0.9-2.1,2.1-2.1c1.2,0,2.1,0.9,2.1,2.1c0,1.2-0.9,2.1-2.1,2.1 C161.5,454.2,160.6,453.3,160.6,452.1 M167.9,452.1c0-1.2,0.9-2.1,2.1-2.1c1.2,0,2.1,0.9,2.1,2.1c0,1.2-0.9,2.1-2.1,2.1 C168.9,454.2,167.9,453.3,167.9,452.1 M175.2,452.1c0-1.2,0.9-2.1,2.1-2.1c1.2,0,2.1,0.9,2.1,2.1c0,1.2-0.9,2.1-2.1,2.1 C176.2,454.2,175.2,453.3,175.2,452.1 M182.6,452.1c0-1.2,0.9-2.1,2.1-2.1c1.2,0,2.1,0.9,2.1,2.1c0,1.2-0.9,2.1-2.1,2.1 C183.5,454.2,182.6,453.3,182.6,452.1 M189.9,452.1c0-1.2,0.9-2.1,2.1-2.1c1.2,0,2.1,0.9,2.1,2.1c0,1.2-0.9,2.1-2.1,2.1 C190.8,454.2,189.9,453.3,189.9,452.1 M197.2,452.1c0-1.2,0.9-2.1,2.1-2.1c1.2,0,2.1,0.9,2.1,2.1c0,1.2-0.9,2.1-2.1,2.1 C198.1,454.2,197.2,453.3,197.2,452.1 M204.5,452.1c0-1.2,0.9-2.1,2.1-2.1c1.2,0,2.1,0.9,2.1,2.1c0,1.2-0.9,2.1-2.1,2.1 C205.4,454.2,204.5,453.3,204.5,452.1 M211.8,452.1c0-1.2,0.9-2.1,2.1-2.1c1.2,0,2.1,0.9,2.1,2.1c0,1.2-0.9,2.1-2.1,2.1 C212.8,454.2,211.8,453.3,211.8,452.1 M219.1,452.1c0-1.2,0.9-2.1,2.1-2.1c1.2,0,2.1,0.9,2.1,2.1c0,1.2-0.9,2.1-2.1,2.1 C220.1,454.2,219.1,453.3,219.1,452.1 M226.5,452.1c0-1.2,0.9-2.1,2.1-2.1c1.2,0,2.1,0.9,2.1,2.1c0,1.2-0.9,2.1-2.1,2.1 C227.4,454.2,226.5,453.3,226.5,452.1 M233.8,452.1c0-1.2,0.9-2.1,2.1-2.1c1.2,0,2.1,0.9,2.1,2.1c0,1.2-0.9,2.1-2.1,2.1 C234.7,454.2,233.8,453.3,233.8,452.1 M241.1,452.1c0-1.2,0.9-2.1,2.1-2.1c1.2,0,2.1,0.9,2.1,2.1c0,1.2-0.9,2.1-2.1,2.1 C242,454.2,241.1,453.3,241.1,452.1 M248.4,452.1c0-1.2,0.9-2.1,2.1-2.1c1.2,0,2.1,0.9,2.1,2.1c0,1.2-0.9,2.1-2.1,2.1 C249.3,454.2,248.4,453.3,248.4,452.1 M255.7,452.1c0-1.2,0.9-2.1,2.1-2.1c1.2,0,2.1,0.9,2.1,2.1c0,1.2-0.9,2.1-2.1,2.1 C256.7,454.2,255.7,453.3,255.7,452.1 M263,452.1c0-1.2,0.9-2.1,2.1-2.1c1.2,0,2.1,0.9,2.1,2.1c0,1.2-0.9,2.1-2.1,2.1 C264,454.2,263,453.3,263,452.1 M270.4,452.1c0-1.2,0.9-2.1,2.1-2.1c1.2,0,2.1,0.9,2.1,2.1c0,1.2-0.9,2.1-2.1,2.1 C271.3,454.2,270.4,453.3,270.4,452.1 M277.7,452.1c0-1.2,0.9-2.1,2.1-2.1c1.2,0,2.1,0.9,2.1,2.1c0,1.2-0.9,2.1-2.1,2.1 C278.6,454.2,277.7,453.3,277.7,452.1 M285,452.1c0-1.2,0.9-2.1,2.1-2.1c1.2,0,2.1,0.9,2.1,2.1c0,1.2-0.9,2.1-2.1,2.1 C285.9,454.2,285,453.3,285,452.1 M292.3,452.1c0-1.2,0.9-2.1,2.1-2.1c1.2,0,2.1,0.9,2.1,2.1c0,1.2-0.9,2.1-2.1,2.1 C293.2,454.2,292.3,453.3,292.3,452.1 M299.6,452.1c0-1.2,0.9-2.1,2.1-2.1c1.2,0,2.1,0.9,2.1,2.1c0,1.2-0.9,2.1-2.1,2.1 C300.6,454.2,299.6,453.3,299.6,452.1 M306.9,452.1c0-1.2,0.9-2.1,2.1-2.1c1.2,0,2.1,0.9,2.1,2.1c0,1.2-0.9,2.1-2.1,2.1 C307.9,454.2,306.9,453.3,306.9,452.1 M314.3,452.1c0-1.2,0.9-2.1,2.1-2.1c1.2,0,2.1,0.9,2.1,2.1c0,1.2-0.9,2.1-2.1,2.1 C315.2,454.2,314.3,453.3,314.3,452.1 M321.6,452.1c0-1.2,0.9-2.1,2.1-2.1c1.2,0,2.1,0.9,2.1,2.1c0,1.2-0.9,2.1-2.1,2.1 C322.5,454.2,321.6,453.3,321.6,452.1 M328.9,452.1c0-1.2,0.9-2.1,2.1-2.1c1.2,0,2.1,0.9,2.1,2.1c0,1.2-0.9,2.1-2.1,2.1 C329.8,454.2,328.9,453.3,328.9,452.1 M336.2,452.1c0-1.2,0.9-2.1,2.1-2.1c1.2,0,2.1,0.9,2.1,2.1c0,1.2-0.9,2.1-2.1,2.1 C337.1,454.2,336.2,453.3,336.2,452.1 M343.5,452.1c0-1.2,0.9-2.1,2.1-2.1c1.2,0,2.1,0.9,2.1,2.1c0,1.2-0.9,2.1-2.1,2.1 C344.5,454.2,343.5,453.3,343.5,452.1 M350.8,452.1c0-1.2,0.9-2.1,2.1-2.1c1.2,0,2.1,0.9,2.1,2.1c0,1.2-0.9,2.1-2.1,2.1 C351.8,454.2,350.8,453.3,350.8,452.1 M131.6,453.7c-0.4-1.1,0.1-2.3,1.1-2.7c1.1-0.5,2.3,0.1,2.7,1.1c0.5,1.1-0.1,2.3-1.1,2.7 c-0.3,0.1-0.5,0.2-0.8,0.2C132.7,455,132,454.5,131.6,453.7 M129.1,460.5c-1.2-0.1-2-1.2-1.8-2.3c0.1-1.2,1.2-2,2.3-1.9 c1.2,0.1,2,1.2,1.9,2.3c-0.1,1.1-1,1.9-2.1,1.9C129.3,460.5,129.2,460.5,129.1,460.5 M127.2,465.7L127.2,465.7 c0-1.2,0.9-2.1,2.1-2.1c1.2,0,2.1,0.9,2.1,2.1c0,1.2-0.9,2.1-2.1,2.1S127.2,466.8,127.2,465.7 M127.2,473c0-1.2,0.9-2.1,2.1-2.1 c1.2,0,2.1,0.9,2.1,2.1c0,1.2-0.9,2.1-2.1,2.1C128.1,475.1,127.2,474.2,127.2,473"></path><path fill="#AFCA14" d="M129.3,482.4c-0.1,0-0.3,0-0.4,0c-0.1,0-0.3-0.1-0.4-0.1c-0.1-0.1-0.3-0.1-0.4-0.2c-0.1-0.1-0.2-0.2-0.3-0.3 c-0.1-0.1-0.2-0.2-0.3-0.3c-0.1-0.1-0.1-0.2-0.2-0.4c-0.1-0.1-0.1-0.3-0.1-0.4c0-0.1,0-0.3,0-0.4c0-0.6,0.2-1.1,0.6-1.5 c0.1-0.1,0.2-0.2,0.3-0.3c0.1-0.1,0.2-0.1,0.4-0.2s0.3-0.1,0.4-0.1c0.7-0.1,1.4,0.1,1.9,0.6c0.4,0.4,0.6,0.9,0.6,1.5 c0,0.1,0,0.3,0,0.4c0,0.1-0.1,0.3-0.1,0.4c-0.1,0.1-0.1,0.2-0.2,0.4c-0.1,0.1-0.2,0.2-0.3,0.3C130.4,482.2,129.8,482.4,129.3,482.4"></path><path fill="#AFCA14" d="M670.8,423.6c0-1.2,0.9-2.1,2.1-2.1c1.2,0,2.1,0.9,2.1,2.1c0,1.2-0.9,2.1-2.1,2.1 C671.8,425.7,670.8,424.8,670.8,423.6 M670.8,431c0-1.2,0.9-2.1,2.1-2.1c1.2,0,2.1,0.9,2.1,2.1c0,1.2-0.9,2.1-2.1,2.1 C671.8,433.1,670.8,432.2,670.8,431 M670.8,438.4c0-1.2,0.9-2.1,2.1-2.1c1.2,0,2.1,0.9,2.1,2.1c0,1.2-0.9,2.1-2.1,2.1 C671.8,440.5,670.8,439.5,670.8,438.4 M672.6,447.8c-1.1-0.2-2-1.2-1.8-2.4c0.2-1.1,1.2-2,2.4-1.8c1.1,0.2,2,1.2,1.8,2.4v0 c-0.1,1.1-1.1,1.8-2.1,1.8C672.8,447.8,672.7,447.8,672.6,447.8 M666.5,451.9c-0.4-1.1,0.1-2.3,1.2-2.7c1.1-0.4,2.3,0.1,2.7,1.2 c0.4,1.1-0.1,2.3-1.2,2.7c-0.2,0.1-0.5,0.1-0.7,0.1C667.6,453.3,666.8,452.8,666.5,451.9 M541.1,451.8c0-1.2,0.9-2.1,2.1-2.1 c1.2,0,2.1,0.9,2.1,2.1c0,1.2-0.9,2.1-2.1,2.1C542,453.9,541.1,453,541.1,451.8 M548.4,451.8c0-1.2,0.9-2.1,2.1-2.1 c1.2,0,2.1,0.9,2.1,2.1c0,1.2-0.9,2.1-2.1,2.1C549.4,453.9,548.4,453,548.4,451.8 M555.8,451.8c0-1.2,0.9-2.1,2.1-2.1 c1.2,0,2.1,0.9,2.1,2.1c0,1.2-0.9,2.1-2.1,2.1C556.8,453.9,555.8,453,555.8,451.8 M563.2,451.8c0-1.2,0.9-2.1,2.1-2.1 c1.2,0,2.1,0.9,2.1,2.1c0,1.2-0.9,2.1-2.1,2.1C564.1,453.9,563.2,453,563.2,451.8 M570.6,451.8c0-1.2,0.9-2.1,2.1-2.1 c1.2,0,2.1,0.9,2.1,2.1c0,1.2-0.9,2.1-2.1,2.1C571.5,453.9,570.6,453,570.6,451.8 M577.9,451.8c0-1.2,0.9-2.1,2.1-2.1 c1.2,0,2.1,0.9,2.1,2.1c0,1.2-0.9,2.1-2.1,2.1C578.9,453.9,577.9,453,577.9,451.8 M585.3,451.8c0-1.2,0.9-2.1,2.1-2.1 c1.2,0,2.1,0.9,2.1,2.1c0,1.2-0.9,2.1-2.1,2.1C586.3,453.9,585.3,453,585.3,451.8 M592.7,451.8c0-1.2,0.9-2.1,2.1-2.1 c1.2,0,2.1,0.9,2.1,2.1c0,1.2-0.9,2.1-2.1,2.1C593.6,453.9,592.7,453,592.7,451.8 M600.1,451.8c0-1.2,0.9-2.1,2.1-2.1 c1.2,0,2.1,0.9,2.1,2.1c0,1.2-0.9,2.1-2.1,2.1C601,453.9,600.1,453,600.1,451.8 M607.5,451.8c0-1.2,0.9-2.1,2.1-2.1 c1.2,0,2.1,0.9,2.1,2.1c0,1.2-0.9,2.1-2.1,2.1C608.4,453.9,607.5,453,607.5,451.8 M614.8,451.8c0-1.2,0.9-2.1,2.1-2.1 c1.2,0,2.1,0.9,2.1,2.1c0,1.2-0.9,2.1-2.1,2.1C615.8,453.9,614.8,453,614.8,451.8 M622.2,451.8c0-1.2,0.9-2.1,2.1-2.1 c1.2,0,2.1,0.9,2.1,2.1c0,1.2-0.9,2.1-2.1,2.1C623.1,453.9,622.2,453,622.2,451.8 M629.6,451.8c0-1.2,0.9-2.1,2.1-2.1 c1.2,0,2.1,0.9,2.1,2.1c0,1.2-0.9,2.1-2.1,2.1C630.5,453.9,629.6,453,629.6,451.8 M636.9,451.8c0-1.2,0.9-2.1,2.1-2.1 c1.2,0,2.1,0.9,2.1,2.1c0,1.2-0.9,2.1-2.1,2.1C637.9,453.9,636.9,453,636.9,451.8 M644.3,451.8c0-1.2,0.9-2.1,2.1-2.1 c1.2,0,2.1,0.9,2.1,2.1c0,1.2-0.9,2.1-2.1,2.1C645.3,453.9,644.3,453,644.3,451.8 M651.7,451.8c0-1.2,0.9-2.1,2.1-2.1 c1.2,0,2.1,0.9,2.1,2.1c0,1.2-0.9,2.1-2.1,2.1C652.6,453.9,651.7,453,651.7,451.8 M660.9,454c-1.2-0.1-2-1.2-1.9-2.3 c0.1-1.2,1.2-2,2.3-1.9c1.1,0.1,2,1.2,1.9,2.3c-0.1,1.1-1,1.9-2.1,1.9C661.1,454,661,454,660.9,454"></path><path fill="#AFCA14" d="M672.9,418.3c-0.5,0-1.1-0.2-1.5-0.6c-0.1-0.1-0.2-0.2-0.3-0.3c-0.1-0.1-0.1-0.2-0.2-0.4 c-0.1-0.1-0.1-0.3-0.1-0.4c0-0.1,0-0.3,0-0.4c0-0.6,0.2-1.1,0.6-1.5c0.8-0.8,2.2-0.8,3,0c0.4,0.4,0.6,0.9,0.6,1.5c0,0.1,0,0.3,0,0.4 c0,0.1-0.1,0.3-0.1,0.4c-0.1,0.1-0.1,0.3-0.2,0.4c-0.1,0.1-0.2,0.2-0.3,0.3C674.1,418.1,673.5,418.3,672.9,418.3"></path><path fill="#AFCA14" d="M131.2,574.4c-0.6,0-1.1-0.2-1.5-0.6c-0.4-0.4-0.6-0.9-0.6-1.5c0-0.1,0-0.3,0-0.4c0-0.1,0.1-0.3,0.1-0.4 c0.1-0.1,0.1-0.3,0.2-0.4c0.1-0.1,0.2-0.2,0.3-0.3c0.8-0.8,2.2-0.8,3,0c0.1,0.1,0.2,0.2,0.3,0.3c0.1,0.1,0.1,0.2,0.2,0.4 c0.1,0.1,0.1,0.3,0.1,0.4c0,0.1,0,0.3,0,0.4c0,0.6-0.2,1.1-0.6,1.5c-0.1,0.1-0.2,0.2-0.3,0.3c-0.1,0.1-0.2,0.1-0.4,0.2 c-0.1,0.1-0.3,0.1-0.4,0.1C131.4,574.4,131.3,574.4,131.2,574.4"></path><path fill="#AFCA14" d="M129.1,579.7c0-1.2,0.9-2.1,2.1-2.1c1.2,0,2.1,0.9,2.1,2.1c0,1.2-0.9,2.1-2.1,2.1 C130,581.8,129.1,580.8,129.1,579.7 M129.1,587.1c0-1.2,0.9-2.1,2.1-2.1c1.2,0,2.1,0.9,2.1,2.1c0,1.2-0.9,2.1-2.1,2.1 C130,589.2,129.1,588.2,129.1,587.1 M129.1,594.4c0-1.2,0.9-2.1,2.1-2.1c1.2,0,2.1,0.9,2.1,2.1c0,1.2-0.9,2.1-2.1,2.1 C130,596.5,129.1,595.6,129.1,594.4 M129.1,601.8c0-1.2,0.9-2.1,2.1-2.1c1.2,0,2.1,0.9,2.1,2.1c0,1.2-0.9,2.1-2.1,2.1 C130,603.9,129.1,603,129.1,601.8 M129.1,609.2c0-1.2,0.9-2.1,2.1-2.1c1.2,0,2.1,0.9,2.1,2.1c0,1.2-0.9,2.1-2.1,2.1 C130,611.3,129.1,610.4,129.1,609.2 M129.1,616.6c0-1.2,0.9-2.1,2.1-2.1c1.2,0,2.1,0.9,2.1,2.1c0,1.2-0.9,2.1-2.1,2.1 C130,618.7,129.1,617.8,129.1,616.6 M129.1,624c0-1.2,0.9-2.1,2.1-2.1c1.2,0,2.1,0.9,2.1,2.1c0,1.2-0.9,2.1-2.1,2.1 C130,626.1,129.1,625.1,129.1,624 M129.1,631.4c0-1.2,0.9-2.1,2.1-2.1c1.2,0,2.1,0.9,2.1,2.1c0,1.2-0.9,2.1-2.1,2.1 C130,633.5,129.1,632.5,129.1,631.4 M129.1,638.7c0-1.2,0.9-2.1,2.1-2.1c1.2,0,2.1,0.9,2.1,2.1c0,1.2-0.9,2.1-2.1,2.1 C130,640.8,129.1,639.9,129.1,638.7 M129.1,646.1c0-1.2,0.9-2.1,2.1-2.1c1.2,0,2.1,0.9,2.1,2.1c0,1.2-0.9,2.1-2.1,2.1 C130,648.2,129.1,647.3,129.1,646.1 M129.1,653.5c0-1.2,0.9-2.1,2.1-2.1c1.2,0,2.1,0.9,2.1,2.1c0,1.2-0.9,2.1-2.1,2.1 C130,655.6,129.1,654.7,129.1,653.5"></path><path fill="#AFCA14" d="M131.2,663c-0.6,0-1.1-0.2-1.5-0.6c-0.4-0.4-0.6-0.9-0.6-1.5c0-0.1,0-0.3,0-0.4c0-0.1,0.1-0.3,0.1-0.4 c0.1-0.1,0.1-0.3,0.2-0.4c0.1-0.1,0.2-0.2,0.3-0.3c0.8-0.8,2.2-0.8,3,0c0.1,0.1,0.2,0.2,0.3,0.3c0.1,0.1,0.1,0.2,0.2,0.4 c0.1,0.1,0.1,0.3,0.1,0.4c0,0.1,0,0.3,0,0.4c0,0.3-0.1,0.6-0.2,0.8c-0.1,0.3-0.3,0.5-0.5,0.7c-0.2,0.2-0.4,0.3-0.7,0.5 C131.7,662.9,131.4,663,131.2,663"></path><path fill="#AFCA0B" d="M933.4,565.5h-19.6c-0.8,0-1.5-0.7-1.5-1.5c0-0.8,0.7-1.5,1.5-1.5c0.8,0,1.5-0.7,1.5-1.5v-9.8 c0-3.8,3.1-6.9,6.9-6.9c0-0.8,0.7-1.5,1.5-1.5c0.8,0,1.5,0.7,1.5,1.5c3.8,0,6.9,3.1,6.9,6.9v9.8c0,0.8,0.7,1.5,1.5,1.5 c0.8,0,1.5,0.7,1.5,1.5C934.8,564.8,934.2,565.5,933.4,565.5 M923.6,569.9c-1.6,0-2.9-1.3-2.9-2.9h5.9 C926.5,568.6,925.2,569.9,923.6,569.9 M923.6,536.2c-11.2,0-20.3,9.1-20.3,20.3c0,11.2,9.1,20.3,20.3,20.3 c11.2,0,20.3-9.1,20.3-20.3C943.8,545.2,934.7,536.2,923.6,536.2"></path><path fill="#AFCA0B" d="M1106.5,418.6c-13.8,0-25,11.2-25,25c0,13.8,11.2,25,25,25s25-11.2,25-25 C1131.5,429.8,1120.3,418.6,1106.5,418.6"></path><path fill="#878787" d="M518.4,514.1c0.6-2.8,0.9-6,0.9-12.3c0-1.6,0-3-0.1-4.3l-8.7,8.7L518.4,514.1z"></path><path fill="#878787" d="M507.1,526.6h-1.8c-0.7,0-1.3-0.6-1.3-1.3c0-0.7,0.6-1.3,1.3-1.3h1.8c0.7,0,1.3,0.6,1.3,1.3 C508.4,526,507.8,526.6,507.1,526.6 M488.7,526.6h-1.8c-0.7,0-1.3-0.6-1.3-1.3c0-0.7,0.6-1.3,1.3-1.3h1.8c0.7,0,1.3,0.6,1.3,1.3 C489.9,526,489.4,526.6,488.7,526.6 M496.3,478.4h1.8c0.7,0,1.3,0.6,1.3,1.3c0,0.7-0.6,1.3-1.3,1.3h-1.8c-0.7,0-1.3-0.6-1.3-1.3 C495.1,478.9,495.6,478.4,496.3,478.4 M515.9,520.3l-9.9-9.9l-9.9,9.9h-8.4l-0.1-0.3l13.8-13.8l-13.8-13.8l0.1-0.3h8.4l9.9,9.8 l9.9-9.8h3c-0.2-1.8-0.5-3.1-0.8-4.4c-0.4-1.7-1.8-6-6.3-5.9c0,0,0,0,0,0h-0.2h-10.3v-2.6c0-1.2-1-2.2-2.2-2.2h-3.8 c-1.2,0-2.2,1-2.2,2.2v2.6h-10.6h-0.2c0,0,0,0,0,0c-4.5-0.1-5.9,4.2-6.3,5.9c-0.7,2.7-1.3,5.9-1.3,14c0,8.6,0.6,11.5,1.7,15.4 c1,3.5,2.4,5.4,5.4,5.4h0.5h1.4v2.9c0,1.2,1,2.2,2.2,2.2h3.8c1.2,0,2.2-1,2.2-2.2v-2.9h10.3v2.9c0,1.2,1,2.2,2.2,2.2h3.8 c1.2,0,2.2-1,2.2-2.2v-2.9h1.4h0.5c1.9,0,3.2-0.8,4.2-2.4H515.9z"></path><path fill="#878787" d="M503.6,506.3c0,1.3,1.1,2.4,2.4,2.4c1.3,0,2.4-1.1,2.4-2.4c0-1.3-1.1-2.4-2.4-2.4 C504.7,503.9,503.6,504.9,503.6,506.3"></path><path fill="#878787" d="M436.1,508.9l5.4,5.4c0.7-3.7,1.3-8,1.7-12.5L436.1,508.9z"></path><path fill="#878787" d="M394.3,532.6c0.2,0.1,0.4,0.1,0.6,0.2l23.9-23.9L392.9,483l0.2-0.6h15.8l18.5,18.5l16.6-16.5 c0.2-17.9-1.7-36.2-6-43.7v0c-0.1-0.1-0.1-0.2-0.1-0.2h0c-2.4-3.1-6.1-5.2-10.2-5.7c0,0,0.1,0,0.1,0c-7.6-2-26-1.7-33.6,0.1 c0.3,0,0.7-0.1,1-0.1c-19.1,2-15.2,25.8-16.4,48.6c1.2,17.6-0.4,47.1,15.6,49.2C394.4,532.6,394.4,532.6,394.3,532.6"></path><path fill="#878787" d="M423,508.9c0,2.5,2,4.5,4.5,4.5c2.5,0,4.5-2,4.5-4.5c0-2.5-2-4.5-4.5-4.5C425,504.5,423,506.5,423,508.9"></path><path fill="#878787" d="M502.6,434.1h3.2v-43.3c0-0.6-0.4-1.2-0.9-1.4L277.9,289c-0.4-0.2-0.9-0.2-1.3,0l-241,111 c-0.6,0.3-0.9,0.8-0.9,1.4v127.8c0,0.9,0.7,1.6,1.6,1.6c0.9,0,1.6-0.7,1.6-1.6V402.5l239.5-110.3l225.4,99.7V434.1z"></path><path fill="#878787" d="M502.6,539.3v117.9c0,0.9,0.7,1.6,1.6,1.6c0.9,0,1.6-0.7,1.6-1.6V539.3H502.6z"></path><path fill="#878787" d="M468.5,567.5c0,0.1,0,0.1,0,0.2v21.6l1.6-0.1c0,0,0.1-0.1,0.1-0.1v-21.5l0,0H468.5z"></path><path fill="#878787" d="M473,575.9c-0.1,0.1-0.2,0.1-0.3,0.1h-1.1c-0.2,0-0.3-0.2-0.3-0.3l0-2.5l0.1-2c0-0.1,0-0.1,0.1-0.2l1.4-1.9 c0.1-0.1,0.2-0.1,0.3-0.1h0.2v-3.3l-2.3,1.5c0,0-0.1,0.1-0.1,0.1c-0.1,0.1-0.1,0.2-0.1,0.2v21.3l2.4-1.5c0.1,0,0.1-0.2,0.1-0.3 v-11.5L473,575.9L473,575.9z"></path><path fill="#878787" d="M464.1,566.8h3.9c0.2-0.3,0.4-0.4,0.4-0.4l1-0.6l-3.5,0.3c-0.2,0-0.4,0.1-0.6,0.2L464.1,566.8z"></path><path fill="#878787" d="M467.7,567.5h-4.9l0,0v21.2c0,0,0,0.1,0.1,0.1l3.1,0.3c0.1,9.6,0.1,27-5.2,30.8c-2.3,1.6-5.2,2.5-9.1,2.9 c-7.7,0.7-14.4-1.4-18.5-5.8c-5.2-5.5-5.8-13.7-6-22.3c-0.1-6.6-0.1-16.7,0-26.4c0-8.6,0.1-26.5,0-35.2c4.4-0.9,8.3-2.8,10.5-6.3 l-10.1-10.1l-17.8,17.7c0.1,0,0.3,0,0.4,0v0c0.9,0,2.1,0,2.9,0v0c3-0.1,5.7-0.3,8.4-0.6v0c1.5-0.1,3-0.3,4.4-0.5 c0.1,8.8,0,26.5,0,35c0,9.7-0.1,19.7,0,26.4c0.2,8.8,0.8,17.2,6.3,23c3.8,4,9.7,6.2,16.6,6.2c0.9,0,1.9,0,2.9-0.1 c4.1-0.4,7.3-1.4,9.7-3.1c5.8-4.1,5.8-21.1,5.7-31.6l0.6,0.1c0,0,0,0,0,0v-21.6C467.7,567.7,467.7,567.6,467.7,567.5"></path><path fill="#878787" d="M471.1,565.6l-2,1.2h1.1c0.1,0,0.2,0,0.3-0.1c0,0,0.1,0,0.1-0.1l1.8-1.2L471.1,565.6z"></path><polygon fill="#878787" points="474.2,570.3 473.4,571.5 478,571.5 478.3,570.3 "></polygon><polygon fill="#878787" points="473,572.1 472.9,573.3 477.7,573.3 477.8,572.1 "></polygon><polygon fill="#878787" points="472.9,574.7 472.9,575.1 473.2,574.7 "></polygon><rect x="472.9" y="573.7" transform="matrix(1 -7.600152e-03 7.600152e-03 1 -4.3481 3.6287)" fill="#878787" width="4.7" height="0.5"></rect><path fill="#878787" d="M480.8,572.9h-0.3l-2.3,0l0.1-0.3l0-0.3h2.1h0.4c0,0,0.1,0,0.1,0c0,0,0.1-0.1,0.1-0.1c0-0.1,0-0.1-0.1-0.1 c0,0-0.1,0-0.1,0h-1.7h-0.8c0,0,0,0,0,0l0.1-0.6l-0.2,0.7l-0.2,1.6l0.1-0.3h0.2c0,0,0,0,0,0h0.9h0.3h1h0.3c0,0,0.1,0,0.1,0 c0,0,0.1-0.1,0.1-0.1C481,573,481,572.9,480.8,572.9C480.9,572.9,480.9,572.9,480.8,572.9"></path><polygon fill="#878787" points="471.8,571.4 471.6,573.3 471.7,575.6 472.5,575.6 472.5,573.2 472.7,571.4 474.1,569.6 473.2,569.6 "></polygon><path fill="#878787" d="M694.3,201.9c-1.8,0-3.3,1.5-3.3,3.3c0,1.8,1.5,3.3,3.3,3.3c1.8,0,3.3-1.5,3.3-3.3 C697.6,203.4,696.1,201.9,694.3,201.9"></path><path fill="#878787" d="M661.8,290.6c-2.1,0-3.8-1.7-3.8-3.8c0-2.1,1.7-3.8,3.8-3.8c2.1,0,3.8,1.7,3.8,3.8 C665.7,288.9,663.9,290.6,661.8,290.6 M683.8,255.1c0-1.2-0.9-2.1-2.1-2.1c-1.2,0-2.1,0.9-2.1,2.1v24.7c0,0.1,0,0.2,0,0.3 c0,0,0.3,1.9-0.8,3.2c-0.7,0.8-1.9,1.3-3.5,1.4c-3.2,0.2-4.9,0.2-5.7,0.1c-0.9-3.5-4-6.1-7.8-6.1c-4.4,0-8,3.6-8,8s3.6,8,8,8 c3.6,0,6.7-2.5,7.7-5.8c0.3,0,0.5,0,0.8,0c1.2,0,2.9-0.1,5.2-0.2c2.9-0.1,5.1-1.1,6.6-2.9c2-2.4,1.8-5.5,1.7-6.3V255.1z"></path><path fill="#878787" d="M726,290.6c-2.1,0-3.8-1.7-3.8-3.8s1.7-3.8,3.8-3.8c2.1,0,3.8,1.7,3.8,3.8S728.2,290.6,726,290.6 M726,278.7 c-3.8,0-6.9,2.6-7.8,6.1c-1,0-2.6,0-5.4-0.1c-1.6-0.1-2.8-0.5-3.5-1.4c-1.1-1.3-0.8-3.2-0.8-3.2c0-0.1,0-0.2,0-0.3v-24.7 c0-1.2-0.9-2.1-2.1-2.1s-2.1,0.9-2.1,2.1v24.6c-0.1,0.8-0.3,3.8,1.7,6.3c1.5,1.8,3.7,2.8,6.6,2.9c2.3,0.1,4,0.2,5.2,0.2 c0.2,0,0.3,0,0.5,0c1,3.3,4,5.8,7.7,5.8c4.4,0,8-3.6,8-8S730.5,278.7,726,278.7"></path><path fill="#878787" d="M697.1,301.4c0,2.1-1.7,3.8-3.8,3.8s-3.8-1.7-3.8-3.8c0-2.1,1.7-3.8,3.8-3.8S697.1,299.3,697.1,301.4 M696,255.1c0-1.2-0.9-2.1-2.1-2.1c-1.2,0-2.1,0.9-2.1,2.1v38.5c-3.7,0.7-6.6,4-6.6,7.9c0,4.4,3.6,8,8,8c4.4,0,8-3.6,8-8 c0-3.5-2.2-6.4-5.3-7.5c0-0.1,0-0.1,0-0.2V255.1z"></path><path fill="#878787" d="M1137.4,135.5c-0.9,0-1.7-0.8-1.7-1.7c0-0.9,0.8-1.7,1.7-1.7c0.9,0,1.7,0.8,1.7,1.7 C1139.1,134.7,1138.3,135.5,1137.4,135.5 M720.2,224.7c0.1,0.2,0,0.4-0.2,0.4h-11.8l-13.9-13.9l-14,13.9h-11.8 c-0.2,0-0.3-0.3-0.2-0.4l19.5-19.4l-19.5-19.4c-0.2-0.2,0-0.4,0.2-0.4h11.9l13.9,13.9l13.9-13.9H720c0.2,0,0.3,0.3,0.2,0.4 l-19.5,19.4L720.2,224.7z M963.8,174.1c0.9,0,1.7,0.8,1.7,1.7c0,0.9-0.8,1.7-1.7,1.7c-0.9,0-1.7-0.8-1.7-1.7 C962.1,174.9,962.9,174.1,963.8,174.1 M932.1,195.1c0.9,0,1.7,0.8,1.7,1.7c0,0.9-0.8,1.7-1.7,1.7c-0.9,0-1.6-0.6-1.7-1.5 c0-0.1,0-0.2,0-0.2c0-0.1,0-0.1,0-0.2C930.5,195.7,931.3,195.1,932.1,195.1 M555.7,152.2c-0.9,0-1.7-0.8-1.7-1.7s0.8-1.7,1.7-1.7 s1.7,0.8,1.7,1.7S556.6,152.2,555.7,152.2 M512.6,107.3c-0.9,0-1.7-0.8-1.7-1.7c0-0.9,0.8-1.7,1.7-1.7c0.9,0,1.7,0.8,1.7,1.7 C514.3,106.5,513.6,107.3,512.6,107.3 M555.7,47.3c-0.9,0-1.7-0.8-1.7-1.7s0.8-1.7,1.7-1.7s1.7,0.8,1.7,1.7S556.6,47.3,555.7,47.3 M652.5,47.3c-0.9,0-1.7-0.8-1.7-1.7s0.8-1.7,1.7-1.7c0.9,0,1.7,0.8,1.7,1.7S653.5,47.3,652.5,47.3 M758,24.7c0.9,0,1.7,0.8,1.7,1.7 c0,0.9-0.8,1.7-1.7,1.7c-0.9,0-1.7-0.8-1.7-1.7C756.3,25.4,757,24.7,758,24.7 M835,44.5c0.9,0,1.7,0.8,1.7,1.7 c0,0.9-0.8,1.7-1.7,1.7c-0.9,0-1.7-0.8-1.7-1.7C833.3,45.3,834.1,44.5,835,44.5 M803.3,107.2c0.9,0.8,2,1.3,3.3,1.4L736.5,166 L803.3,107.2z M807.1,101.3c0.9,0,1.7,0.8,1.7,1.7c0,0.9-0.8,1.7-1.7,1.7s-1.7-0.8-1.7-1.7C805.4,102,806.1,101.3,807.1,101.3 M905.9,26.4c0.9,0,1.7,0.8,1.7,1.7c0,0.9-0.8,1.7-1.7,1.7c-0.9,0-1.7-0.8-1.7-1.7C904.2,27.2,905,26.4,905.9,26.4 M998.9,7 c0.9,0,1.7,0.8,1.7,1.7c0,0.9-0.8,1.7-1.7,1.7c-0.9,0-1.7-0.8-1.7-1.7C997.2,7.8,998,7,998.9,7 M911.6,70.2c0.9,0,1.7,0.8,1.7,1.7 c0,0.9-0.8,1.7-1.7,1.7c-0.9,0-1.7-0.8-1.7-1.7C909.9,70.9,910.6,70.2,911.6,70.2 M986.1,74.4c-0.4,0.7-0.6,1.6-0.6,2.4 c0,0.3,0,0.6,0.1,0.9l-171.9,72.7L986.1,74.4z M987.9,81.4l-159.6,65l158-66.8C986.6,80.3,987.2,80.9,987.9,81.4 M991.2,75.1 c0.9,0,1.7,0.8,1.7,1.7c0,0.9-0.8,1.7-1.7,1.7c-0.9,0-1.7-0.8-1.7-1.7C989.5,75.8,990.2,75.1,991.2,75.1 M1094.1,23 c0.9,0,1.7,0.8,1.7,1.7c0,0.9-0.8,1.7-1.7,1.7c-0.3,0-0.5-0.1-0.8-0.2c0-0.1,0-0.1,0-0.2c-0.1-0.3-0.4-0.5-0.7-0.6 c-0.1-0.2-0.2-0.5-0.2-0.8C1092.4,23.7,1093.2,23,1094.1,23 M1060.4,51.2c0.9,0,1.7,0.8,1.7,1.7s-0.8,1.7-1.7,1.7 c-0.9,0-1.7-0.8-1.7-1.7S1059.5,51.2,1060.4,51.2 M902,128.4c0.9,0,1.7,0.8,1.7,1.7c0,0.9-0.8,1.7-1.7,1.7c-0.9,0-1.7-0.8-1.7-1.7 C900.3,129.2,901,128.4,902,128.4 M1067.7,128.4c0.9,0,1.7,0.8,1.7,1.7c0,0.9-0.8,1.7-1.7,1.7c-0.9,0-1.7-0.8-1.7-1.7 C1066,129.2,1066.8,128.4,1067.7,128.4 M1137.4,128.1c-3.1,0-5.6,2.5-5.6,5.6c0,0.2,0,0.5,0,0.7l-380.5,57.8 c-0.1-0.1-0.1-0.1-0.2-0.2l311.5-59.5c0.9,1.9,2.8,3.2,5.1,3.2c3.1,0,5.6-2.5,5.6-5.6c0-3.1-2.5-5.6-5.6-5.6s-5.6,2.5-5.6,5.6 c0,0.2,0,0.3,0,0.5l-312.3,59.7c-1.5-1.7-3.2-3.3-5.1-4.7l152.6-52.4c1,1.5,2.7,2.6,4.7,2.6c3.1,0,5.6-2.5,5.6-5.6 c0-3.1-2.5-5.6-5.6-5.6c-3.1,0-5.6,2.5-5.6,5.6c0,0.4,0.1,0.9,0.2,1.3l-153.8,52.9c-0.3-0.2-0.6-0.4-1-0.6L990.6,82.4 c0.2,0,0.4,0,0.6,0c1.7,0,3.3-0.8,4.3-2l60.1-24.5c1,1.6,2.8,2.7,4.8,2.7c3.1,0,5.6-2.5,5.6-5.6c0-3.1-2.5-5.6-5.6-5.6 c-3.1,0-5.6,2.5-5.6,5.6c0,0.4,0,0.8,0.1,1.2l-58.1,23.7c0.1-0.3,0.1-0.6,0.1-1c0-2.5-1.7-4.7-4-5.4l97.2-42.9 c1,1.1,2.5,1.8,4.1,1.8c3.1,0,5.6-2.5,5.6-5.6c0-3.1-2.5-5.6-5.6-5.6c-3.1,0-5.6,2.5-5.6,5.6c0,0.8,0.2,1.5,0.4,2.2L737.5,181.8 c-1.7-0.6-3.5-1.1-5.4-1.4l174.9-105c1,1.3,2.7,2.2,4.5,2.2c3.1,0,5.6-2.5,5.6-5.6c0-3.1-2.5-5.6-5.6-5.6c-3.1,0-5.6,2.5-5.6,5.6 c0,0.6,0.1,1.2,0.3,1.7l-145.1,87.1L994.6,12.4c1,1.2,2.6,2,4.3,2c3.1,0,5.6-2.5,5.6-5.6c0-3.1-2.5-5.6-5.6-5.6 c-3.1,0-5.6,2.5-5.6,5.6c0,0.7,0.1,1.3,0.4,2L730.9,177.5c-0.2-1.2-0.5-2.5-0.8-3.6L902.5,32.5c1,0.7,2.2,1.2,3.5,1.2 c3.1,0,5.6-2.5,5.6-5.6s-2.5-5.6-5.6-5.6c-3.1,0-5.6,2.5-5.6,5.6c0,1.1,0.3,2.1,0.9,3l-88.4,72.5c0-0.2,0-0.4,0-0.6 c0-3.1-2.5-5.6-5.6-5.6s-5.6,2.5-5.6,5.6c0,1,0.2,1.9,0.7,2.6l-73.3,64.6c-0.4-1.1-0.9-2.1-1.5-3.2L832.5,51.3 c0.8,0.4,1.6,0.6,2.5,0.6c3.1,0,5.6-2.5,5.6-5.6s-2.5-5.6-5.6-5.6s-5.6,2.5-5.6,5.6c0,1.5,0.6,2.9,1.5,3.9L726.2,165.3 c-3.2-5.2-7.7-9.4-13.1-12.3l44.2-121c0.2,0,0.4,0,0.6,0c3.1,0,5.6-2.5,5.6-5.6c0-3.1-2.5-5.6-5.6-5.6c-3.1,0-5.6,2.5-5.6,5.6 c0,2.2,1.3,4.1,3.1,5l-44,120.7c-4.4-2-9.3-3.2-14.5-3.2c-5.3,0-10.4,1.2-14.9,3.4L654.8,50.7c2-0.9,3.3-2.9,3.3-5.1 c0-3.1-2.5-5.6-5.6-5.6c-3.1,0-5.6,2.5-5.6,5.6s2.5,5.6,5.6,5.6c0.1,0,0.3,0,0.4,0l27.3,102c-5.3,2.9-9.7,7.2-12.8,12.4 c-1.3,0.1-2.5,0.2-3.7,0.4L560,49.2c0.8-1,1.3-2.2,1.3-3.6c0-3.1-2.5-5.6-5.6-5.6c-3.1,0-5.6,2.5-5.6,5.6s2.5,5.6,5.6,5.6 c1,0,2-0.3,2.8-0.8l103,116c-5.8,1.5-10.9,4.8-14.6,9.3l-128.9-68.2c0.2-0.6,0.4-1.3,0.4-2c0-3.1-2.5-5.6-5.6-5.6 c-3.1,0-5.6,2.5-5.6,5.6s2.5,5.6,5.6,5.6c1.7,0,3.2-0.8,4.3-2l128.7,68.1c-1,1.4-1.9,2.9-2.6,4.5l-81.7-30.4c0-0.3,0.1-0.5,0.1-0.8 c0-3.1-2.5-5.6-5.6-5.6c-3.1,0-5.6,2.5-5.6,5.6c0,3.1,2.5,5.6,5.6,5.6c2.1,0,4-1.2,5-3l81.5,30.4c-0.9,2.4-1.5,4.9-1.8,7.5 c-5.5,5.2-8.9,12.5-8.9,20.6c0,15.6,12.7,28.3,28.3,28.3c0.9,0,1.8-0.1,2.6-0.1l68.9-0.2c14.5-2.1,25.7-14.6,25.7-29.7 c0-2.9-0.4-5.7-1.2-8.4l170.7-3.7c0.5,2.6,2.8,4.6,5.5,4.6c3.1,0,5.6-2.5,5.6-5.6c0-3.1-2.5-5.6-5.6-5.6c-2.8,0-5.1,2-5.6,4.7 l-171.3,3.8c-0.3-0.9-0.7-1.7-1.1-2.6l204.1-20c0.6,2.5,2.8,4.4,5.5,4.4c3.1,0,5.6-2.5,5.6-5.6c0-3.1-2.5-5.6-5.6-5.6 c-2.9,0-5.2,2.2-5.6,4.9l-205,20.1c-0.2-0.4-0.4-0.7-0.6-1.1l379.8-57.7c0.9,1.8,2.8,3.1,5,3.1c3.1,0,5.6-2.5,5.6-5.6 C1143,130.7,1140.5,128.1,1137.4,128.1"></path><path fill="#878787" d="M998.4,708.6H841.6V604.3c0-2.1,1.7-3.9,3.9-3.9h149.1c2.1,0,3.9,1.7,3.9,3.9V708.6z M1031.3,713.5v-4.9 h-25.6V600.4c0-4.1-3.3-7.4-7.4-7.4H840.9c-3.6,0-6.6,2.9-6.6,6.6v109h-25.6v4.9l5.3,3.3h211.9L1031.3,713.5z"></path><path fill="#AFCA0B" d="M893.3,667.7c-0.5,0-0.9-0.4-1-0.9c-0.1-0.6,0.3-1.1,0.9-1.2l32.6-6.6l14.8-20.1c0.3-0.3,0.9-0.4,1.3-0.2 l18.6,10.8l30.4,5.1c0.6,0.1,1,0.6,0.9,1.2c-0.1,0.6-0.6,0.9-1.2,0.9l-30.6-5.2c-0.1,0-0.2-0.1-0.4-0.1L941.4,641l-14.4,19.8 c-0.2,0.2-0.4,0.3-0.6,0.3l-32.9,6.6C893.4,667.7,893.3,667.7,893.3,667.7"></path><path fill="#AFCA0B" d="M878.4,669.8c-1.5,7.2-3.4,17.6-3,22.6c0.4,6.1,1.5,7.1,2.1,7.2h-4.8l-4.5-13.8c1.6-4.7,4.1-9.6,7.7-13.2 C876.7,671.7,877.6,670.7,878.4,669.8"></path><path fill="#AFCA0B" d="M908,648c-3.5-3.9-5.9-7.8-8-11.2c-1.9-3.1-3.5-5.6-5.3-7.3c1-1.4,1.9-3.6,0.9-6.5c-1.8-4.9-1.9-1.2-2.1,0 c-0.3,2.5-1.5,4.2-2.5,5.3c-2.3-1.9-6-4.6-7.9-4.2c-1.9,0.4-0.1,4.4,1.5,7.3c-9,2.3-23,4.7-23.6,4.8l-0.2,0h-0.2 c-0.1,0-7.3,0-19.1-0.1v37.9c1,0.1,1.9,0.2,2.8,0.3c5.5,0.7,9.6,1.9,9.8,1.9l1.3,0.4v22.8h4.8c0.6-5.2,3-20.7,12-29.6 c2.7-2.7,4.9-5.7,6.8-8.2c0.1-0.1,0.2-0.2,0.2-0.3c0,0,0.1-0.1,0.1-0.1c3.5-5,6.6-9.4,11.7-9.4c0.9,0,1.9,0.1,3,0.5 c1.8,0.6,3.5,0.8,5.1,0.8c4.3,0,7.2-2,8.3-3.7C908.1,648.6,908.1,648.1,908,648"></path><path fill="#AFCA14" d="M713.2,528c0-1.2-0.9-2.1-2.1-2.1c-1.2,0-2.1,0.9-2.1,2.1c0,1.2,0.9,2.1,2.1,2.1 C712.3,530.1,713.2,529.2,713.2,528 M713.2,535.4c0-1.2-0.9-2.1-2.1-2.1c-1.2,0-2.1,0.9-2.1,2.1c0,1.2,0.9,2.1,2.1,2.1 C712.3,537.5,713.2,536.6,713.2,535.4 M713.2,542.8c0-1.2-0.9-2.1-2.1-2.1c-1.2,0-2.1,0.9-2.1,2.1c0,1.2,0.9,2.1,2.1,2.1 C712.3,544.9,713.2,544,713.2,542.8 M711.5,552.2c1.1-0.2,2-1.2,1.8-2.4c-0.2-1.1-1.2-2-2.4-1.8c-1.1,0.2-2,1.2-1.8,2.4v0 c0.1,1.1,1.1,1.8,2.1,1.8C711.3,552.3,711.4,552.3,711.5,552.2 M717.6,556.3c0.4-1.1-0.1-2.3-1.2-2.7c-1.1-0.4-2.3,0.1-2.7,1.2 c-0.4,1.1,0.1,2.3,1.2,2.7c0.2,0.1,0.5,0.1,0.7,0.1C716.4,557.7,717.2,557.2,717.6,556.3 M853.5,556.2 M850.4,556.2 c0-1.2-0.9-2.1-2.1-2.1c-1.2,0-2.1,0.9-2.1,2.1c0,1.2,0.9,2.1,2.1,2.1C849.4,558.3,850.4,557.4,850.4,556.2 M843,556.2 c0-1.2-0.9-2.1-2.1-2.1c-1.2,0-2.1,0.9-2.1,2.1c0,1.2,0.9,2.1,2.1,2.1C842,558.3,843,557.4,843,556.2 M835.6,556.2 c0-1.2-0.9-2.1-2.1-2.1c-1.2,0-2.1,0.9-2.1,2.1c0,1.2,0.9,2.1,2.1,2.1C834.7,558.3,835.6,557.4,835.6,556.2 M828.2,556.2 c0-1.2-0.9-2.1-2.1-2.1c-1.2,0-2.1,0.9-2.1,2.1c0,1.2,0.9,2.1,2.1,2.1C827.3,558.3,828.2,557.4,828.2,556.2 M820.9,556.2 c0-1.2-0.9-2.1-2.1-2.1c-1.2,0-2.1,0.9-2.1,2.1c0,1.2,0.9,2.1,2.1,2.1C819.9,558.3,820.9,557.4,820.9,556.2 M813.5,556.2 c0-1.2-0.9-2.1-2.1-2.1c-1.2,0-2.1,0.9-2.1,2.1c0,1.2,0.9,2.1,2.1,2.1C812.5,558.3,813.5,557.4,813.5,556.2 M806.1,556.2 c0-1.2-0.9-2.1-2.1-2.1c-1.2,0-2.1,0.9-2.1,2.1c0,1.2,0.9,2.1,2.1,2.1C805.2,558.3,806.1,557.4,806.1,556.2 M798.7,556.2 c0-1.2-0.9-2.1-2.1-2.1c-1.2,0-2.1,0.9-2.1,2.1c0,1.2,0.9,2.1,2.1,2.1C797.8,558.3,798.7,557.4,798.7,556.2 M791.4,556.2 c0-1.2-0.9-2.1-2.1-2.1c-1.2,0-2.1,0.9-2.1,2.1c0,1.2,0.9,2.1,2.1,2.1C790.4,558.3,791.4,557.4,791.4,556.2 M784,556.2 c0-1.2-0.9-2.1-2.1-2.1c-1.2,0-2.1,0.9-2.1,2.1c0,1.2,0.9,2.1,2.1,2.1C783,558.3,784,557.4,784,556.2 M776.6,556.2 c0-1.2-0.9-2.1-2.1-2.1c-1.2,0-2.1,0.9-2.1,2.1c0,1.2,0.9,2.1,2.1,2.1C775.7,558.3,776.6,557.4,776.6,556.2 M769.2,556.2 c0-1.2-0.9-2.1-2.1-2.1c-1.2,0-2.1,0.9-2.1,2.1c0,1.2,0.9,2.1,2.1,2.1C768.3,558.3,769.2,557.4,769.2,556.2 M761.9,556.2 c0-1.2-0.9-2.1-2.1-2.1c-1.2,0-2.1,0.9-2.1,2.1c0,1.2,0.9,2.1,2.1,2.1C760.9,558.3,761.9,557.4,761.9,556.2 M754.5,556.2 c0-1.2-0.9-2.1-2.1-2.1c-1.2,0-2.1,0.9-2.1,2.1c0,1.2,0.9,2.1,2.1,2.1C753.5,558.3,754.5,557.4,754.5,556.2 M747.1,556.2 c0-1.2-0.9-2.1-2.1-2.1c-1.2,0-2.1,0.9-2.1,2.1c0,1.2,0.9,2.1,2.1,2.1C746.2,558.3,747.1,557.4,747.1,556.2 M739.7,556.2 c0-1.2-0.9-2.1-2.1-2.1c-1.2,0-2.1,0.9-2.1,2.1c0,1.2,0.9,2.1,2.1,2.1C738.8,558.3,739.7,557.4,739.7,556.2 M732.3,556.2 c0-1.2-0.9-2.1-2.1-2.1c-1.2,0-2.1,0.9-2.1,2.1c0,1.2,0.9,2.1,2.1,2.1C731.4,558.3,732.3,557.4,732.3,556.2 M723.1,558.4 c1.2-0.1,2-1.2,1.9-2.3c-0.1-1.2-1.2-2-2.3-1.9c-1.1,0.1-2,1.2-1.9,2.3c0.1,1.1,1,1.9,2.1,1.9C722.9,558.4,723,558.4,723.1,558.4"></path><path fill="#AFCA14" d="M1128.2,556.4 M1125.1,556.4c0-1.2-0.9-2.1-2.1-2.1c-1.2,0-2.1,0.9-2.1,2.1c0,1.2,0.9,2.1,2.1,2.1 C1124.1,558.5,1125.1,557.6,1125.1,556.4 M1117.7,556.4c0-1.2-0.9-2.1-2.1-2.1c-1.2,0-2.1,0.9-2.1,2.1c0,1.2,0.9,2.1,2.1,2.1 C1116.8,558.5,1117.7,557.6,1117.7,556.4 M1110.3,556.4c0-1.2-0.9-2.1-2.1-2.1c-1.2,0-2.1,0.9-2.1,2.1c0,1.2,0.9,2.1,2.1,2.1 C1109.4,558.5,1110.3,557.6,1110.3,556.4 M1102.9,556.4c0-1.2-0.9-2.1-2.1-2.1c-1.2,0-2.1,0.9-2.1,2.1c0,1.2,0.9,2.1,2.1,2.1 C1102,558.5,1102.9,557.6,1102.9,556.4 M1095.6,556.4c0-1.2-0.9-2.1-2.1-2.1c-1.2,0-2.1,0.9-2.1,2.1c0,1.2,0.9,2.1,2.1,2.1 C1094.6,558.5,1095.6,557.6,1095.6,556.4 M1088.2,556.4c0-1.2-0.9-2.1-2.1-2.1c-1.2,0-2.1,0.9-2.1,2.1c0,1.2,0.9,2.1,2.1,2.1 C1087.3,558.5,1088.2,557.6,1088.2,556.4 M1080.8,556.4c0-1.2-0.9-2.1-2.1-2.1c-1.2,0-2.1,0.9-2.1,2.1c0,1.2,0.9,2.1,2.1,2.1 C1079.9,558.5,1080.8,557.6,1080.8,556.4 M1073.4,556.4c0-1.2-0.9-2.1-2.1-2.1s-2.1,0.9-2.1,2.1c0,1.2,0.9,2.1,2.1,2.1 S1073.4,557.6,1073.4,556.4 M1066.1,556.4c0-1.2-0.9-2.1-2.1-2.1c-1.2,0-2.1,0.9-2.1,2.1c0,1.2,0.9,2.1,2.1,2.1 C1065.1,558.5,1066.1,557.6,1066.1,556.4 M1194.6,556.4 M1191.5,556.4c0-1.2-0.9-2.1-2.1-2.1c-1.2,0-2.1,0.9-2.1,2.1 c0,1.2,0.9,2.1,2.1,2.1C1190.5,558.5,1191.5,557.6,1191.5,556.4 M1184.1,556.4c0-1.2-0.9-2.1-2.1-2.1c-1.2,0-2.1,0.9-2.1,2.1 c0,1.2,0.9,2.1,2.1,2.1C1183.1,558.5,1184.1,557.6,1184.1,556.4 M1176.7,556.4c0-1.2-0.9-2.1-2.1-2.1c-1.2,0-2.1,0.9-2.1,2.1 c0,1.2,0.9,2.1,2.1,2.1C1175.8,558.5,1176.7,557.6,1176.7,556.4 M1169.3,556.4c0-1.2-0.9-2.1-2.1-2.1c-1.2,0-2.1,0.9-2.1,2.1 c0,1.2,0.9,2.1,2.1,2.1C1168.4,558.5,1169.3,557.6,1169.3,556.4 M1162,556.4c0-1.2-0.9-2.1-2.1-2.1c-1.2,0-2.1,0.9-2.1,2.1 c0,1.2,0.9,2.1,2.1,2.1C1161,558.5,1162,557.6,1162,556.4 M1154.6,556.4c0-1.2-0.9-2.1-2.1-2.1c-1.2,0-2.1,0.9-2.1,2.1 c0,1.2,0.9,2.1,2.1,2.1C1153.6,558.5,1154.6,557.6,1154.6,556.4 M1147.2,556.4c0-1.2-0.9-2.1-2.1-2.1c-1.2,0-2.1,0.9-2.1,2.1 c0,1.2,0.9,2.1,2.1,2.1C1146.3,558.5,1147.2,557.6,1147.2,556.4 M1139.8,556.4c0-1.2-0.9-2.1-2.1-2.1c-1.2,0-2.1,0.9-2.1,2.1 c0,1.2,0.9,2.1,2.1,2.1C1138.9,558.5,1139.8,557.6,1139.8,556.4 M1132.4,556.4c0-1.2-0.9-2.1-2.1-2.1c-1.2,0-2.1,0.9-2.1,2.1 c0,1.2,0.9,2.1,2.1,2.1C1131.5,558.5,1132.4,557.6,1132.4,556.4 M1058.7,556.4c0-1.2-0.9-2.1-2.1-2.1c-1.2,0-2.1,0.9-2.1,2.1 c0,1.2,0.9,2.1,2.1,2.1C1057.7,558.5,1058.7,557.6,1058.7,556.4 M1051.3,556.4c0-1.2-0.9-2.1-2.1-2.1c-1.2,0-2.1,0.9-2.1,2.1 c0,1.2,0.9,2.1,2.1,2.1C1050.4,558.5,1051.3,557.6,1051.3,556.4 M1043.9,556.4c0-1.2-0.9-2.1-2.1-2.1c-1.2,0-2.1,0.9-2.1,2.1 c0,1.2,0.9,2.1,2.1,2.1C1043,558.5,1043.9,557.6,1043.9,556.4 M1036.6,556.4c0-1.2-0.9-2.1-2.1-2.1c-1.2,0-2.1,0.9-2.1,2.1 c0,1.2,0.9,2.1,2.1,2.1C1035.6,558.5,1036.6,557.6,1036.6,556.4 M1029.2,556.4c0-1.2-0.9-2.1-2.1-2.1c-1.2,0-2.1,0.9-2.1,2.1 c0,1.2,0.9,2.1,2.1,2.1C1028.3,558.5,1029.2,557.6,1029.2,556.4 M1021.8,556.4c0-1.2-0.9-2.1-2.1-2.1c-1.2,0-2.1,0.9-2.1,2.1 c0,1.2,0.9,2.1,2.1,2.1C1020.9,558.5,1021.8,557.6,1021.8,556.4 M1014.4,556.4c0-1.2-0.9-2.1-2.1-2.1c-1.2,0-2.1,0.9-2.1,2.1 c0,1.2,0.9,2.1,2.1,2.1C1013.5,558.5,1014.4,557.6,1014.4,556.4 M1007.1,556.4c0-1.2-0.9-2.1-2.1-2.1c-1.2,0-2.1,0.9-2.1,2.1 c0,1.2,0.9,2.1,2.1,2.1C1006.1,558.5,1007.1,557.6,1007.1,556.4 M997.8,558.6c1.2-0.1,2-1.2,1.9-2.3c-0.1-1.2-1.2-2-2.3-1.9 c-1.1,0.1-2,1.2-1.9,2.3c0.1,1.1,1,1.9,2.1,1.9C997.7,558.6,997.7,558.6,997.8,558.6"></path><path fill="#AFCA14" d="M711.2,525.4 M711.2,522.2c1.2,0,2.1-0.9,2.1-2.1c0-1.2-0.9-2.1-2.1-2.1c-1.2,0-2.1,0.9-2.1,2.1 C709.1,521.3,710.1,522.2,711.2,522.2 M711.2,514.9c1.2,0,2.1-0.9,2.1-2.1c0-1.2-0.9-2.1-2.1-2.1c-1.2,0-2.1,0.9-2.1,2.1 C709.1,513.9,710.1,514.9,711.2,514.9 M711.2,506.7c1.2,0,2.1-0.9,2.1-2.1c0-1.2-0.9-2.1-2.1-2.1c-1.2,0-2.1,0.9-2.1,2.1 C709.1,505.8,710.1,506.7,711.2,506.7 M711.2,499.3c1.2,0,2.1-0.9,2.1-2.1s-0.9-2.1-2.1-2.1c-1.2,0-2.1,0.9-2.1,2.1 S710.1,499.3,711.2,499.3 M711.2,492c1.2,0,2.1-0.9,2.1-2.1c0-1.2-0.9-2.1-2.1-2.1c-1.2,0-2.1,0.9-2.1,2.1 C709.1,491,710.1,492,711.2,492 M711.2,484.6c1.2,0,2.1-0.9,2.1-2.1c0-1.2-0.9-2.1-2.1-2.1c-1.2,0-2.1,0.9-2.1,2.1 C709.1,483.6,710.1,484.6,711.2,484.6 M711.2,477.2c1.2,0,2.1-0.9,2.1-2.1c0-1.2-0.9-2.1-2.1-2.1c-1.2,0-2.1,0.9-2.1,2.1 C709.1,476.3,710.1,477.2,711.2,477.2 M711.2,469.8c1.2,0,2.1-0.9,2.1-2.1c0-1.2-0.9-2.1-2.1-2.1c-1.2,0-2.1,0.9-2.1,2.1 C709.1,468.9,710.1,469.8,711.2,469.8 M711.2,462.5c1.2,0,2.1-0.9,2.1-2.1c0-1.2-0.9-2.1-2.1-2.1c-1.2,0-2.1,0.9-2.1,2.1 C709.1,461.5,710.1,462.5,711.2,462.5 M711.2,455.1c1.2,0,2.1-0.9,2.1-2.1c0-1.2-0.9-2.1-2.1-2.1c-1.2,0-2.1,0.9-2.1,2.1 C709.1,454.1,710.1,455.1,711.2,455.1 M711.2,447.7c1.2,0,2.1-0.9,2.1-2.1c0-1.2-0.9-2.1-2.1-2.1c-1.2,0-2.1,0.9-2.1,2.1 C709.1,446.8,710.1,447.7,711.2,447.7 M711.2,440.3c1.2,0,2.1-0.9,2.1-2.1c0-1.2-0.9-2.1-2.1-2.1c-1.2,0-2.1,0.9-2.1,2.1 C709.1,439.4,710.1,440.3,711.2,440.3 M711.2,432.9c1.2,0,2.1-0.9,2.1-2.1c0-1.2-0.9-2.1-2.1-2.1c-1.2,0-2.1,0.9-2.1,2.1 C709.1,432,710.1,432.9,711.2,432.9 M709.1,423.7c0.1,1.2,1.2,2,2.3,1.9c1.2-0.1,2-1.2,1.9-2.3c-0.1-1.1-1.2-2-2.3-1.9 c-1.1,0.1-1.9,1-1.9,2.1C709,423.5,709.1,423.6,709.1,423.7"></path><path fill="#AFCA14" d="M711.1,417.9c0.5,0,1.1-0.2,1.5-0.6c0.1-0.1,0.2-0.2,0.3-0.3c0.1-0.1,0.1-0.2,0.2-0.4 c0.1-0.1,0.1-0.3,0.1-0.4c0-0.1,0-0.3,0-0.4c0-0.6-0.2-1.1-0.6-1.5c-0.8-0.8-2.2-0.8-3,0c-0.4,0.4-0.6,0.9-0.6,1.5 c0,0.1,0,0.3,0,0.4c0,0.1,0.1,0.3,0.1,0.4c0.1,0.1,0.1,0.3,0.2,0.4c0.1,0.1,0.2,0.2,0.3,0.3C710,417.7,710.5,417.9,711.1,417.9"></path><path fill="#AFCA14" d="M670.8,408.6c0-1.2,0.9-2.1,2.1-2.1c1.2,0,2.1,0.9,2.1,2.1c0,1.2-0.9,2.1-2.1,2.1 C671.8,410.7,670.8,409.8,670.8,408.6"></path><path fill="#AFCA14" d="M672.9,403.3c-0.5,0-1.1-0.2-1.5-0.6c-0.1-0.1-0.2-0.2-0.3-0.3c-0.1-0.1-0.1-0.2-0.2-0.4 c-0.1-0.1-0.1-0.3-0.1-0.4c0-0.1,0-0.3,0-0.4c0-0.6,0.2-1.1,0.6-1.5c0.8-0.8,2.2-0.8,3,0c0.4,0.4,0.6,0.9,0.6,1.5c0,0.1,0,0.3,0,0.4 c0,0.1-0.1,0.3-0.1,0.4c-0.1,0.1-0.1,0.3-0.2,0.4c-0.1,0.1-0.2,0.2-0.3,0.3C674.1,403.1,673.5,403.3,672.9,403.3"></path><path fill="#AFCA14" d="M713.2,408.2c0-1.2-0.9-2.1-2.1-2.1c-1.2,0-2.1,0.9-2.1,2.1c0,1.2,0.9,2.1,2.1,2.1 C712.3,410.3,713.2,409.4,713.2,408.2"></path><path fill="#AFCA14" d="M711.1,402.9c0.5,0,1.1-0.2,1.5-0.6c0.1-0.1,0.2-0.2,0.3-0.3c0.1-0.1,0.1-0.2,0.2-0.4 c0.1-0.1,0.1-0.3,0.1-0.4c0-0.1,0-0.3,0-0.4c0-0.6-0.2-1.1-0.6-1.5c-0.8-0.8-2.2-0.8-3,0c-0.4,0.4-0.6,0.9-0.6,1.5 c0,0.1,0,0.3,0,0.4c0,0.1,0.1,0.3,0.1,0.4c0.1,0.1,0.1,0.3,0.2,0.4c0.1,0.1,0.2,0.2,0.3,0.3C710,402.7,710.5,402.9,711.1,402.9"></path><path fill="#AFCA0B" d="M1076.4,467.7c-2.6-0.6-3.6-1.5-4.2-2.8c-0.7-1.5-0.5-3.7,1.6-5.2c6.8-4.9,9.6-8.3,10-9.7 c0.5-1.9,2.4-3.1,4.3-2.6c1.9,0.5,3.1,2.4,2.6,4.3c-0.3,1.1-1,4.1-7.2,9.4c3.2,0,6.8-0.1,8.3-0.5c2.7-0.7,5.7-1.7,7.4-3.6 c1.3-1.5,3.6-1.7,5.1-0.4c1.5,1.3,1.7,3.6,0.4,5.1c-2.9,3.3-6.9,4.8-10.9,5.8c-2.4,0.6-7.1,0.9-10.7,0.8 C1080.1,468.3,1078,468.1,1076.4,467.7z"></path><path fill="#878787" d="M964.1,447.5c1.1,0,2.1,0.9,2.1,2c0,1.1-0.9,2.1-2,2.1c-1.1,0-2.1-0.9-2.1-2c0,0,0,0,0,0 C962.1,448.4,963,447.5,964.1,447.5C964.1,447.5,964.1,447.5,964.1,447.5"></path><path fill="#878787" d="M975,447.5c1.1,0,2.1,0.9,2.1,2c0,1.1-0.9,2.1-2,2.1c-1.1,0-2.1-0.9-2.1-2c0,0,0,0,0,0 C972.9,448.4,973.8,447.5,975,447.5C975,447.5,975,447.5,975,447.5"></path><path fill="#878787" d="M972.2,462.7c-2.3,0-4.6-0.7-6.6-1.8c-0.6-0.3-0.8-1.1-0.5-1.6c0.3-0.6,1-0.8,1.6-0.5c0,0,0,0,0,0 c3.4,2,7.6,2,10.9,0c0.6-0.3,1.3-0.1,1.6,0.5c0,0,0,0,0,0c0.3,0.6,0.1,1.3-0.5,1.6C976.8,462.1,974.5,462.7,972.2,462.7"></path><path fill="#878787" d="M1027.6,454.7c-2.3,0-4.5-0.5-6.6-1.5c-0.6-0.3-0.9-1-0.6-1.6c0,0,0,0,0,0c0.2-0.6,0.9-0.9,1.5-0.6 c0,0,0,0,0,0c3.5,1.7,7.6,1.7,11.1,0c0.6-0.3,1.3,0,1.5,0.6c0,0,0,0,0,0.1c0.3,0.6,0,1.3-0.6,1.6c0,0,0,0,0,0 C1032,454.2,1029.7,454.7,1027.6,454.7"></path><path fill="#878787" d="M997.8,479.3l-8.6-3.9l-4.7-4.9c-0.3-0.3-0.7-0.5-1.1-0.5v-2.9c4.2-2.8,7.1-7.2,8-12.2c0.5,0,0.9,0,1.4-0.2 c2.4-0.7,4-2.8,3.9-5.3v-1.3c0-1.8-0.8-3.5-2.3-4.5c0.4-1.6,0.6-3.3,0.6-5c0-7.3-3.8-14.1-10-18.1c0-6.5-5.3-11.7-11.7-11.7 c-6.5,0-11.7,5.3-11.7,11.7l0,0c-6.2,3.9-10,10.7-10,18.1c0,1.7,0.2,3.4,0.6,5c-1.4,1.1-2.3,2.7-2.3,4.5v1.3 c-0.1,2.5,1.6,4.6,3.9,5.3c0.5,0.1,0.9,0.2,1.4,0.2c0.9,5,3.8,9.4,8,12.2v2.9c-0.4,0-0.8,0.2-1.1,0.5l-4.7,4.9l-8.6,3.9 c-4.5,2-7.3,6.6-7.1,11.5l1,25.4c0,1,0.8,1.7,1.8,1.8l0,0c1-0.1,1.7-0.9,1.7-1.9l-1-25.4c0-1.6,0.3-3.1,1.1-4.5l4.8,5.6 c1.5,1.9,2.3,4.2,2.3,6.6v17.8c0,1,0.8,1.8,1.8,1.8s1.8-0.8,1.8-1.8c0,0,0,0,0,0v-17.8c0-3.2-1.1-6.3-3.1-8.8l-5-6.2 c0.4-0.3,0.9-0.5,1.4-0.8l7.6-3.4l5.4,8.9c0.5,0.8,1.3,1.4,2.3,1.6h0.6c0.8,0,1.6-0.3,2.3-0.8l3.4-3l1.6-2.3l2,2.3l3.4,3 c0.6,0.5,1.4,0.8,2.3,0.8h0.5c1-0.2,1.9-0.8,2.4-1.6l5.4-8.9l7.5,3.3c0.5,0.2,0.9,0.5,1.3,0.8l-4.9,6.1c-2,2.5-3.1,5.7-3.1,8.9v17.8 c0,1,0.8,1.8,1.8,1.8c1,0,1.8-0.8,1.8-1.8v-17.8c0-2.3,0.8-4.6,2.3-6.5l4.7-5.7c0.8,1.4,1.2,2.9,1.2,4.5l-1,25.4 c-0.1,1,0.7,1.8,1.7,1.9l0,0c1,0,1.7-0.8,1.8-1.8l1-25.4C1005.1,486,1002.3,481.4,997.8,479.3z M973.2,412.9 c3.6-0.1,6.9,2.3,7.9,5.8c-2.5-1-5.2-1.5-7.9-1.5c-2.7,0-5.4,0.5-7.9,1.5C966.4,415.3,969.6,412.9,973.2,412.9z M958.7,454.2 c-0.3-1.7-1.9-3-3.6-2.9c-0.2,0-0.3,0-0.5,0c-0.7-0.3-1.2-1-1.2-1.8v-1.3c0-0.8,0.5-1.5,1.3-1.7c0.6-0.1,1.2,0.1,1.5,0.6 c0.3,0.4,0.7,0.7,1.2,0.9c0.8,0.3,1.6,0.1,2.3-0.4c1.1-0.8,2.1-1.8,2.9-2.9c0.6-0.8,0.4-1.9-0.4-2.5c-0.8-0.6-1.8-0.5-2.4,0.3 c0,0,0,0,0,0.1c-0.4,0.5-0.9,1-1.4,1.5c-0.8-0.7-1.8-1.1-2.8-1.3c-0.3-1.4-0.5-2.8-0.5-4.2c0-10,8.1-18.2,18.2-18.2 s18.2,8.1,18.2,18.2c0,1.4-0.2,2.8-0.5,4.2c-0.5,0-0.9,0.1-1.4,0.2l-1.3-1.1c-0.6-0.5-1.4-0.8-2.3-0.8c-2.6,0.2-16,0.5-22.8-7.9 c-0.6-0.8-1.8-0.9-2.5-0.2c0,0,0,0,0,0c-0.7,0.7-0.8,1.8-0.2,2.6c3.8,4.4,9,7.4,14.7,8.4c3.6,0.8,7.3,1,11,0.9l2.1,1.7 c0.6,0.5,1.4,0.6,2,0.2c0.6-0.2,1.2-0.3,1.8-0.2c0.8,0.2,1.3,0.9,1.3,1.7v1.3c0,0.8-0.5,1.5-1.2,1.8c-0.2,0-0.3,0-0.5,0 c-1.8-0.1-3.3,1.2-3.6,2.9c-1.2,8-8.8,13.6-16.8,12.3C964.7,465.6,959.7,460.6,958.7,454.2L958.7,454.2z M965.9,486.1l-5.4-8.9 l2.7-2.8l7.4,7.5L965.9,486.1z M973.2,479.5l-6.5-6.8V469c4.2,1.7,8.9,1.7,13.1,0v3.8L973.2,479.5z M980.6,486.1l-4.7-4.2l7.4-7.5 l2.8,2.8L980.6,486.1z"></path><path fill="#878787" d="M1023.7,436.5c1.1,0,2.1,0.9,2.1,2c0,1.1-0.9,2.1-2,2.1s-2.1-0.9-2.1-2c0,0,0,0,0-0.1 C1021.6,437.5,1022.5,436.5,1023.7,436.5"></path><path fill="#878787" d="M1034.6,436.5c1.1,0,2.1,0.9,2.1,2c0,1.1-0.9,2.1-2,2.1c-1.1,0-2.1-0.9-2.1-2c0,0,0,0,0-0.1 C1032.5,437.5,1033.4,436.5,1034.6,436.5C1034.5,436.5,1034.5,436.5,1034.6,436.5"></path><g><path fill="#FFFFFF" d="M1109.2,431.2c0,1.2-0.6,1.8-1.8,1.8h-1.8c-1.2,0-1.8-0.6-1.8-1.8v-1.7c0-1.2,0.6-1.8,1.8-1.8h1.8 c1.2,0,1.8,0.6,1.8,1.8V431.2z M1109.2,460c0,1.2-0.6,1.8-1.8,1.8h-1.8c-1.2,0-1.8-0.6-1.8-1.8v-22.1c0-1.2,0.6-1.8,1.8-1.8h1.8 c1.2,0,1.8,0.6,1.8,1.8V460z"></path></g><path fill="#FFFFFF" d="M934,729.5l-7.7-7.9l6.4-16.2l7.4-12.6l9.8,7.8l-2.4-23.7c0,0-2-10.9,10.5-8.9c12.5,2,31.3,2,31.3,2 s3.5,0.7,3.5,8.6l3.6,15.3l5.2,5.7l-0.9,9.5l-3.2,2.1l6.9,6.9L934,729.5z"></path><path fill="#AFCA0B" d="M961.1,722c-0.5,2.2-1,5.4-0.9,6.9c0.1,1.8,0.5,2.2,0.6,2.2h-1.5l-1.4-4.2c0.5-1.4,1.2-2.9,2.3-4 C960.6,722.6,960.9,722.3,961.1,722"></path><path fill="#878787" d="M1001.8,721.2c-0.7,2-2,3.5-2,3.6l-7,8.6V719l4.3-5.3c0,0,0.1,0,0.1,0c1.4-0.1,2.9,1.1,3.9,2.1 C1001.5,716.3,1003,717.8,1001.8,721.2 M992.8,697.6l1.6-2c0.1,0,0.3-0.1,0.4-0.1c1.5-0.1,2.9,1.1,3.9,2.1c0.5,0.5,2,2,0.8,5.4 c-0.7,2-2,3.5-2,3.6l-2.8,3.4c-0.7,0.3-1.4,0.7-1.8,1.1V697.6z M992.8,678.8c0.9,0.4,1.8,1.1,2.4,1.8c0.5,0.5,2,2,0.8,5.4 c-0.7,2-2,3.5-2,3.6l-1.2,1.4V678.8z M990.4,737.7h-39.2c-0.1-4.9-0.6-8.7-1.2-11.7v-54.8c0-0.6,0.5-1.1,1.1-1.1h38.3 c0.6,0,1.1,0.5,1.1,1.1V737.7z M970.2,748c-1.8,0-3.2-1.4-3.2-3.2c0-1.8,1.4-3.2,3.2-3.2c1.8,0,3.2,1.4,3.2,3.2 C973.4,746.5,971.9,748,970.2,748 M962.4,753.2c-2.8,0.8-5.6,0.9-8.5,0.3c-0.7-0.2-1.2,0-1.8,0.5c-2.1,2.1-4.2,4.2-6.3,6.3 c-0.2,0.2-0.4,0.5-0.6,0.7c-0.7-0.4-20.8-20.4-21.5-21.4c0.2-0.2,0.4-0.4,0.6-0.6c1.6-1.6,3.1-3.1,4.7-4.7c0.7-0.7,1.2-1.6,1.3-2.5 c0.2-1.5,0.4-3,0.5-4.5c0.3-3.7,0.3-7.4,1.2-11c0.4-1.7,1.1-3.4,1.6-5.1c1-3.1,2-6.2,3-9.4c0.9-2.7,1.7-5.5,2.5-8.2 c0.1-0.5,0.4-0.8,0.9-0.9c0.5-0.1,0.9,0,1.3,0.4c1.7,2.4,2.7,5,2.2,8c-0.4,2.3-0.5,4.6-1,6.9c-0.6,2.7-1.4,5.3-2.1,7.9 c-0.1,0.5-0.1,0.9,0.2,1.4c3.2,4,4.9,8.7,5.6,13.8c0.2,1.5,0.3,3.1,0.3,4.6c0,3.3-0.5,6.6-1.5,9.7c-0.1,0.3-0.2,0.6-0.3,0.9 c0.9,0.3,1.8,0.6,2.6,1v3c0,0.9,0.8,1.7,1.7,1.7h15.9C964.3,752.6,963.3,753,962.4,753.2 M947.5,705.5v13.5 c-1.4-2.4-2.6-2.8-2.6-2.8C946.1,714.5,947,709.9,947.5,705.5 M1004,712.9c-1.3-1.3-2.6-2.3-4-2.8l0.6-0.8c2.5-2.9,5.8-9.7,1-14.6 c-1.4-1.4-2.8-2.4-4.2-2.9c2.4-3.1,5.3-9.5,0.7-14.2c-1.8-1.8-3.6-2.9-5.4-3.2v-4.9c0-0.9-0.8-1.7-1.7-1.7h-41.8 c-0.9,0-1.7,0.8-1.7,1.7v24.7c-0.5-1.3-1.2-2.5-2-3.6c-1.5-2.1-3.6-3-6.1-2.6c-2.5,0.4-4.3,1.7-5,4.2c-0.7,2.4-1.5,4.9-2.2,7.3 c-1.1,3.6-2.1,7.2-3.4,10.7c-1.4,3.8-2.2,7.6-2.5,11.6c-0.2,2.6-0.4,5.1-0.5,7.7c-0.1,0.9-0.3,1.7-1.1,2.3c-1.4,1.3-2.8,2.7-4.1,4 c-0.1,0.1-0.3,0.2-0.5,0.4c-1.1-1.1-2.1-2.1-3.1-3.1c-0.9,0.7-12.3,12.1-12.5,12.5c1.2,1.2,2.3,2.3,3.4,3.5c2.9-2.9,5.9-5.9,8.7-8.7 c9,9,17.9,17.9,26.8,26.8c-0.7,0.7-1.5,1.5-2.2,2.3c1.2,1.2,2.4,2.3,3.4,3.3c1.9-1.9,3.9-3.9,6-6c-0.6-0.6-1.2-1.3-1.9-1.9 c0.1-0.2,0.1-0.3,0.2-0.3c1.5-1.6,3.1-3.2,4.6-4.8c0.8-0.8,1.6-1.2,2.7-0.8c0.1,0,0.3,0,0.4,0c4,0.1,7.8-0.7,11.4-2.5 c2.1-1,4-2.4,5.8-3.9c0.2-0.2,0.4-0.3,0.6-0.3h16.7c0.9,0,1.7-0.8,1.7-1.7V740l10.2-12.6C1005.4,724.6,1008.8,717.8,1004,712.9"></path><path fill="#AFCA0B" d="M970.1,715.4c-1.1-1.2-1.8-2.4-2.4-3.4c-0.6-0.9-1.1-1.7-1.6-2.2c0.3-0.4,0.6-1.1,0.3-2 c-0.5-1.5-0.6-0.4-0.6,0c-0.1,0.8-0.4,1.3-0.8,1.6c-0.7-0.6-1.8-1.4-2.4-1.3c-0.6,0.1,0,1.3,0.5,2.2c-2.7,0.7-7,1.4-7.2,1.4l-0.1,0 h0c0,0-2.2,0-5.8,0v11.5c0.3,0,0.6,0.1,0.8,0.1c1.7,0.2,2.9,0.6,3,0.6l0.4,0.1v6.9h1.5c0.2-1.6,0.9-6.3,3.6-9 c0.8-0.8,1.5-1.7,2.1-2.5c0,0,0-0.1,0.1-0.1c0,0,0,0,0,0c1.1-1.5,2-2.8,3.6-2.8c0.3,0,0.6,0,0.9,0.1c0.5,0.2,1.1,0.3,1.6,0.3 c1.3,0,2.2-0.6,2.5-1.1C970.2,715.6,970.2,715.4,970.1,715.4"></path><path fill="#AFCA0B" d="M990.4,691.2l-8.6-5c-0.3-0.2-0.6-0.1-0.8,0.1l-8.4,8.8l-19.4,3c-0.4,0.1-0.6,0.4-0.6,0.8 c0.1,0.3,0.3,0.6,0.7,0.6c0,0,0.1,0,0.1,0l19.7-3.1c0.1,0,0.3-0.1,0.4-0.2l8.1-8.6l8.8,5.1V691.2z"></path><path fill="none" stroke="#878787" stroke-width="3" stroke-linecap="round" stroke-linejoin="round" stroke-miterlimit="10" d=" M1049.1,491.2l5.8,17.9c0,0,2.5,10.5,11.3,5.5c8.2-4.7,25.4-16.8,25.4-16.8l-5.7-5.3l-19.8,8.4"></path><g><path fill="#878787" d="M1063.4,481.4c-1.5-6.3-3.9-9.7-8.6-11.6l-9.7-3.8l-5-5.1c-0.3-0.3-0.7-0.5-1.2-0.5v-4 c2.4-2.6,4-5.9,4.7-9.4c0.4,0,0.8,0,1.2,0c2.4-0.6,4.1-2.8,4.1-5.3v-1.4c0-1.4-0.6-2.8-1.6-3.9c1.6-8.7,0.3-15.8-3.7-20.6 c-4-4.8-10.2-6.8-18.1-6.4c-5,0.2-9.8,2-13.7,5.1c-1.3,0.2-2.5,0.6-3.6,1.3c-3,2-4.7,5.5-4.3,9c0,3.5,0.4,7.1,1.2,10.5 c-1.8,1-2.9,2.8-2.9,4.9v1.3c-0.1,2.5,1.6,4.7,4.1,5.4c0.4,0.1,0.8,0.1,1.3,0c0.6,3.5,2.2,6.7,4.5,9.4v4c-0.4,0-0.8,0.2-1.1,0.5 l-4.9,5.1l-9.7,3.8c-0.8,0.3-1.6,0.8-2.3,1.3c-0.9,0.6-1.1,1.7-0.5,2.6c0,0,0,0,0,0c0.5,0.8,1.6,1.1,2.4,0.6c0,0,0.1,0,0.1-0.1 c0.5-0.4,1.1-0.7,1.6-0.9l9-3.5l6.8,10.5c0.8,1.3,2.2,2.1,3.7,2.3h0.5c0.9,0,4.5-4.4,5.4-4.8l-0.5,38.4c-0.1,1,0.7,1.8,1.7,1.9 c0,0,0,0,0,0c1,0,1.8-0.8,1.8-1.8l1.4-38.4c0.9,0.3,5,4.9,5.9,4.9h0.5c1.5-0.1,2.9-1,3.7-2.3l6.9-10.5l9,3.5 c1.2,0.5,2.3,1.2,3.2,2.3c0,0,0.6,0.4,2.1,2.9c0.6,1.5,0.9,2.2,1,2.8l5.6,18.2c0,1,0.7,1.8,1.7,1.9c1,0,1.7-0.8,1.8-1.8 L1063.4,481.4z M1011,446.2L1011,446.2c-0.3-1.7-1.8-2.9-3.6-2.8h-0.4c-0.8-0.2-1.3-1-1.2-1.8v-1.3c0-0.8,0.5-1.5,1.3-1.7 c0.6-0.1,1.2,0.1,1.5,0.6c0.8,1.1,2.3,1.3,3.4,0.6c1.1-0.8,2.1-1.8,2.9-2.9c0.6-0.8,0.4-1.9-0.4-2.6c-0.8-0.6-1.8-0.5-2.4,0.3 c0,0,0,0,0,0.1c-0.4,0.6-0.9,1.1-1.4,1.5c-0.6-0.5-1.2-0.8-1.9-1c-0.8-3.4-1.3-6.8-1.3-10.3c-0.3-2.2,0.7-4.5,2.5-5.8 c0.8-0.5,1.7-0.8,2.6-0.9c0.5,0,0.9-0.2,1.2-0.5c3.4-2.8,7.5-4.4,11.9-4.5c6.8-0.4,12.1,1.4,15.3,5.1s4.2,9.5,3.1,16.8 c-0.5,0-1,0-1.5,0l-1.7-4.1c-0.3-0.8-1.2-1.3-2.1-1.1c-0.2,0-15,1.6-19.7-0.6c-0.9-0.4-1.7-0.9-2.4-0.3c0,0,0,0,0,0 c-0.8,0.6-0.7,1.6-0.3,2.5c1.8,3.4,17.3,3.2,21.9,2.2l1.3,3.2c0.5,1.3,2,2.1,3.4,1.8c0.4-0.1,0.9-0.1,1.3,0 c0.8,0.2,1.3,0.9,1.3,1.7v1.3c0,0.8-0.5,1.5-1.2,1.8c-0.1,0-0.3,0-0.4,0c-1.8-0.1-3.3,1.2-3.6,2.9c-1.3,8.1-8.9,13.5-17,12.2 C1017,457.4,1012.1,452.4,1011,446.2z M1018.9,478.4c-0.3,0.3-0.8,0.5-1.3,0.5c-0.5-0.1-0.9-0.3-1.2-0.8l-6.8-10.5l2.8-2.8 l10.6,9.5L1018.9,478.4z M1025.7,471.6l-9.9-8.8v-3.4c6,3.9,13.7,3.9,19.7,0v3.5L1025.7,471.6z M1034.7,478.1 c-0.2,0.4-0.7,0.7-1.1,0.7c-0.5,0-0.9-0.1-1.3-0.5l-4.1-4.1l10.6-9.5l2.8,2.8L1034.7,478.1z"></path></g><path fill="none" stroke="#878787" stroke-width="2" stroke-linecap="round" stroke-linejoin="round" stroke-miterlimit="10" d=" M1080.8,495.7c0,0,6.1-3.4,7.7-4.3c0,0,1.1-2.3,2.5-3.6c2.4-2.3,5.6-6.4,7.1-5.3c0.8,0.6-2,5.6-2.4,6c-0.4,0.4,9.6-4.3,10.8-3.6 c1.2,0.6-6,3.9-6,3.9s9.6-3.4,10.1-2.5c0.3,0.6-6,3.3-8.3,4c0,0,7.1-2,8-1.2c0.2,0.2-5.2,2.1-6.1,2.8c-0.5,0.4,5.5-0.7,5.1-0.1 c-0.6,1-13.8,5.7-15.2,5.3c-1.5-0.5-6.8,3.2-6.8,3.2L1080.8,495.7z"></path><line fill="none" stroke="#878787" stroke-width="3" stroke-linecap="round" stroke-linejoin="round" stroke-miterlimit="10" x1="1049.1" y1="491.5" x2="1049.1" y2="515.7"></line><g><defs><rect id="SVGID_1_" x="977.1" y="493.9" width="9.5" height="7.2"></rect></defs><clipPath id="SVGID_00000087379613301919771060000007236422260900463240_"><use xlink:href="#SVGID_1_" overflow="visible"></use></clipPath><path clip-path="url(#SVGID_00000087379613301919771060000007236422260900463240_)" fill="#FFFFFF" d="M981.8,498.1 c-0.3,0-0.6-0.3-0.6-0.6c0-0.3,0.3-0.6,0.6-0.6c0.3,0,0.6,0.3,0.6,0.6C982.4,497.8,982.1,498.1,981.8,498.1 M983,497.5l3.5-3.5 c0,0,0-0.1,0-0.1h-2.2l-2.5,2.5l-2.5-2.5h-2.2c0,0-0.1,0,0,0.1l3.5,3.5l-3.5,3.5c0,0,0,0.1,0,0.1h2.1l2.5-2.5l2.5,2.5h2.1 c0,0,0.1,0,0-0.1L983,497.5z"></path><path clip-path="url(#SVGID_00000087379613301919771060000007236422260900463240_)" fill="#AFCA0B" d="M981.8,498.1 c-0.3,0-0.6-0.3-0.6-0.6c0-0.3,0.3-0.6,0.6-0.6c0.3,0,0.6,0.3,0.6,0.6C982.4,497.8,982.1,498.1,981.8,498.1 M983,497.5l3.5-3.5 c0,0,0-0.1,0-0.1h-2.2l-2.5,2.5l-2.5-2.5h-2.2c0,0-0.1,0,0,0.1l3.5,3.5l-3.5,3.5c0,0,0,0.1,0,0.1h2.1l2.5-2.5l2.5,2.5h2.1 c0,0,0.1,0,0-0.1L983,497.5z"></path></g><g><defs><rect id="SVGID_00000136383077776439130890000009000845547343055548_" x="1031.1" y="488.9" width="13" height="9.9"></rect></defs><clipPath id="SVGID_00000028324982599739005320000011426622272008947646_"><use xlink:href="#SVGID_00000136383077776439130890000009000845547343055548_" overflow="visible"></use></clipPath><path clip-path="url(#SVGID_00000028324982599739005320000011426622272008947646_)" fill="#FFFFFF" d="M1037.6,494.7 c-0.5,0-0.8-0.4-0.8-0.8c0-0.5,0.4-0.8,0.8-0.8c0.5,0,0.8,0.4,0.8,0.8C1038.4,494.3,1038.1,494.7,1037.6,494.7 M1039.2,493.9 l4.9-4.8c0,0,0-0.1,0-0.1h-3l-3.5,3.5l-3.5-3.5h-3c-0.1,0-0.1,0.1,0,0.1l4.9,4.8l-4.9,4.8c0,0,0,0.1,0,0.1h2.9l3.5-3.5l3.5,3.5h2.9 c0.1,0,0.1-0.1,0-0.1L1039.2,493.9z"></path><path clip-path="url(#SVGID_00000028324982599739005320000011426622272008947646_)" fill="#AFCA0B" d="M1037.6,494.7 c-0.5,0-0.8-0.4-0.8-0.8c0-0.5,0.4-0.8,0.8-0.8c0.5,0,0.8,0.4,0.8,0.8C1038.4,494.3,1038.1,494.7,1037.6,494.7 M1039.2,493.9 l4.9-4.8c0,0,0-0.1,0-0.1h-3l-3.5,3.5l-3.5-3.5h-3c-0.1,0-0.1,0.1,0,0.1l4.9,4.8l-4.9,4.8c0,0,0,0.1,0,0.1h2.9l3.5-3.5l3.5,3.5h2.9 c0.1,0,0.1-0.1,0-0.1L1039.2,493.9z"></path></g><path fill="none" stroke="#878787" stroke-width="3" stroke-linecap="round" stroke-miterlimit="10" d="M955.1,449.3 c0,0-3.7,1-3.8-6.6c0,0-1.9-19,20.7-19c22.6,0,18.4,25.1,18.4,25.1l-8.2,7.8"></path><ellipse transform="matrix(0.8007 -0.599 0.599 0.8007 -77.3653 679.4862)" fill="#878787" cx="982.6" cy="456" rx="3.3" ry="2.1"></ellipse><path fill="#878787" d="M1154.6,451.7"></path><path fill="#878787" stroke="#878787" stroke-width="4" stroke-linecap="round" stroke-linejoin="round" stroke-miterlimit="10" d=" M1339.1,504.6"></path><path fill="#878787" stroke="#878787" stroke-width="1.3" stroke-miterlimit="10" d="M1220.7,566.5 C1220.7,566.5,1220.7,566.5,1220.7,566.5c0.5,0,0.8,0.4,0.9,0.8c0,0.2,0.1,5.9-3,9.8c-0.2,0.2-0.4,0.3-0.7,0.3 c-0.2,0-0.4-0.1-0.5-0.2c-0.4-0.3-0.4-0.8-0.1-1.2c2.7-3.4,2.6-8.7,2.6-8.8C1219.8,566.9,1220.2,566.5,1220.7,566.5z"></path><path fill="#878787" d="M1244,456.5c0-1.2-1-2.1-2.1-2c0,0,0,0,0,0c-1.1,0-2.1,0.9-2,2.1c0,0,0,0,0,0c0,1.2,1,2.1,2.1,2 C1243.1,458.6,1244,457.6,1244,456.5z"></path><path fill="#878787" d="M1253,458.5c1.2,0,2.1-1,2-2.1c0-1.1-1-2-2.1-2h0c-1.1,0-2.1,0.9-2,2.1c0,0,0,0,0,0 C1250.9,457.7,1251.8,458.6,1253,458.5z"></path><path fill="#878787" d="M1254,466.7c0.6-0.3,0.8-1.1,0.5-1.7c0,0,0,0,0,0c-0.3-0.6-1-0.8-1.6-0.5c-3.4,2.1-7.7,2.1-11.1,0 c0,0,0,0,0,0c-0.6-0.3-1.3-0.1-1.6,0.5c-0.3,0.6-0.1,1.3,0.5,1.7c2,1.2,4.3,1.8,6.7,1.8C1249.6,468.5,1251.9,467.9,1254,466.7z"></path><path fill="none" stroke="#878787" stroke-width="4" stroke-miterlimit="10" d="M1233.4,475.4"></path><path fill="none" stroke="#878787" stroke-width="4" stroke-miterlimit="10" d="M1233.4,475.4"></path><g><path fill="#878787" stroke="#878787" stroke-width="1.3" stroke-miterlimit="10" d="M1322.3,440.8c0.9,0,1.7-0.7,1.7-1.7 c0-0.9-0.7-1.7-1.7-1.7c-0.9,0-1.7,0.7-1.7,1.7C1320.7,440,1321.4,440.8,1322.3,440.8z"></path><path fill="#878787" stroke="#878787" stroke-width="1.3" stroke-miterlimit="10" d="M1310,440.8c0.9,0,1.7-0.7,1.7-1.7 c0-0.9-0.7-1.7-1.7-1.7s-1.7,0.7-1.7,1.7C1308.4,440,1309.1,440.8,1310,440.8z"></path><path fill="#878787" stroke="#878787" stroke-width="1.3" stroke-miterlimit="10" d="M1308.1,451.3c0.1,0.1,3.6,1.9,7.1,2 c0.1,0,0.2,0,0.3,0c3.4,0,5.9-1.9,6.1-2c0.4-0.3,0.5-0.9,0.2-1.3c-0.3-0.4-0.9-0.5-1.3-0.2c0,0-2.3,1.7-5.2,1.6 c-3-0.1-6.3-1.8-6.3-1.8c-0.4-0.2-1-0.1-1.2,0.4C1307.5,450.5,1307.7,451.1,1308.1,451.3z"></path><path fill="#878787" stroke="#878787" stroke-width="1.3" stroke-miterlimit="10" d="M1393.7,506.6c-1.8-1.8-4.2-2.8-6.8-2.8 c0,0,0,0,0,0l-11.4,0c-4.5,0-6.6-1.3-8-2.5c-0.3-0.2-0.6-0.5-0.9-0.9c-0.8-0.9-16.9-20.1-19.1-23.4c-2.5-3.7-6.3-6.9-10.4-8.6 c-0.6-0.3-1.3-0.5-1.9-0.8c-1.6-0.6-3.1-1.3-4.4-1.9c-0.2-0.1-0.4-0.2-0.6-0.3c0,0,0,0,0,0c0,0-0.1,0-0.1-0.1 c-1.2-0.7-2.1-1.3-2.7-2c-1.8-2.2-2.6-3.3-2.6-3.3c-0.1-0.2-0.4-0.4-0.7-0.4c-0.2,0-0.4,0-0.5,0.1v-2.9c3.8-2.4,6.3-6.1,6.3-10.2 c0-0.3,0-3.2,0-3.5c2.5-0.4,4.5-2.6,4.5-5.2c0-1.8-0.9-3.4-2.3-4.4c0.5-1.6,0.8-3.3,0.8-5c0-6.6-3.7-12.5-9.9-15.9 c-3.2-1.7-6.8-2.7-10.5-2.7c-2.9,0-5.8,0.6-8.5,1.7c-7.2,3-11.8,9.6-11.8,16.8c0,1.8,0.3,3.6,0.9,5.3c-1.2,1-1.9,2.5-1.9,4 c0,2.6,1.9,4.8,4.5,5.2c0,0.3,0,3.2,0,3.5c0,4,2.3,7.5,6,10v3.2c-0.2-0.1-0.3-0.1-0.5-0.1c-0.3,0-0.5,0.2-0.7,0.4 c0,0-0.8,1.1-2.6,3.3c-0.6,0.7-1.4,1.3-2.7,2c0,0-0.1,0-0.1,0.1c0,0,0,0,0,0c-0.2,0.1-0.4,0.2-0.6,0.3c-1.3,0.7-7.3,3.7-8.9,4.3 c-0.6,0.2-1.2,0.5-1.9,0.8c-0.1,0.1-0.2,0.1-0.3,0.2l-8.3,9.7l-16.8,21.7c-8.4,9.5-9.6,23.2-3,34.1l13.2,21.3 c0.1,0.1,0.1,0.2,0.2,0.3c0,0.1,0.1,0.2,0.1,0.2c0.2,0.3,0.4,0.6,0.6,0.9c0.1,0.1,0.1,0.2,0.2,0.3c0.1,0.2,0.3,0.4,0.5,0.6 c0.1,0.1,0.2,0.2,0.3,0.3c0.2,0.2,0.3,0.4,0.5,0.6c0.2,0.2,0.5,0.5,0.7,0.7c0.1,0.1,0.1,0.1,0.2,0.2c2.8,2.7,6.4,4.4,10.3,4.9 c0,0,0,0,0,0c0,0,0.1,0,0.1,0c0.8,0.1,1.5,0.1,2.3,0.1h2.1c-0.1,1.4-0.6,4.6-2.8,7.4c-0.3,0.4-0.2,1,0.2,1.3 c0.2,0.1,0.4,0.2,0.6,0.2c0.3,0,0.5-0.1,0.7-0.3c2.5-3.2,3.1-6.9,3.2-8.5h5.5c1.7,0,3.1-1.5,3.1-3.2c0-0.5-0.1-1.1-0.4-1.5 c0.4-0.1,0.9-0.3,1.2-0.6c0.1,0.4,0.4,0.8,0.9,0.8h43.7c0.5,0,0.9-0.4,0.9-0.9l-3.2-54.5c0-0.1,0-0.2,0-0.2v-2.2l6.4,10.1 c0,0,0,0.1,0.1,0.1c6.5,7.7,19.1,7.5,29.1,7.5c1,0,3.7,0,6.7,0c5.9,0,13.2,0,13.2,0c0.5,0,0.9-0.4,0.9-0.9v-8.1 C1396.5,510.8,1395.5,508.4,1393.7,506.6z M1324,461.9c0.4,0.6,1.1,1.4,2.1,2.6c0.6,0.7,1.4,1.4,2.4,2l-7.4,11.9l-7.3-6.6l9.4-9.1 c0.1-0.1,0.2-0.2,0.3-0.3L1324,461.9z M1312.5,470.4l-9.2-8.9v-3.8c2.7,1.4,5.9,2.1,9.4,2.1c3.3,0,6.5-0.7,9.1-2v3.6L1312.5,470.4z M1297.3,446.7c0-0.5,0.1-3.5,0.2-4.1c0.1-0.3,0-0.6-0.2-0.8c-0.2-0.2-0.4-0.3-0.7-0.3c0,0,0,0-0.1,0c0,0-0.1,0-0.2,0 c-1.9,0-3.5-1.6-3.5-3.5c0-0.9,0.3-1.7,0.9-2.4c1.2,0.9,3.4,1.1,4.2,1.1c0,0,0,0,0,0c0.2,0,0.5-0.1,0.6-0.3l3.1-3.1 c0.4-0.4,0.3-0.9,0-1.3c-0.4-0.4-0.9-0.3-1.3,0l-2.8,2.8c-1.3-0.1-2.4-0.4-2.8-0.7c0-0.1,0-0.2,0-0.2c-0.7-1.7-1-3.5-1-5.3 c0-6.5,4.2-12.4,10.7-15.2c2.5-1,5.1-1.6,7.8-1.6c3.4,0,6.7,0.8,9.6,2.4c5.6,3.1,9,8.4,9,14.3c0,1.6-0.3,3.2-0.8,4.7 c-0.7,0.3-1.5,0.5-1.8,0.4c-0.4-0.6-0.9-2.7-1.1-3.9c-0.1-0.5-0.5-0.8-1-0.7c-0.1,0-8.2,1.2-14.6,0.7c-6-0.5-9.2-5.5-9.2-5.6 c-0.3-0.4-0.8-0.6-1.2-0.3c-0.4,0.3-0.6,0.8-0.3,1.2c0.1,0.2,3.7,5.9,10.6,6.4c5.4,0.4,11.8-0.3,14.1-0.6c0.2,1.1,0.7,3,1.2,3.8 c0.4,0.6,1,0.8,1.7,0.8c0.8,0,1.7-0.3,2.2-0.5c1,0.6,1.6,1.7,1.6,2.9c0,1.9-1.6,3.5-3.5,3.5c-0.1,0-0.1,0-0.2,0 c-0.3,0-0.6,0.1-0.7,0.3c-0.2,0.2-0.3,0.5-0.2,0.8c0.1,0.6,0.2,3.7,0.2,4.2c0,6.2-6.9,11.3-15.4,11.3c-3.7,0-7.1-1-9.8-2.6 c0,0-0.1,0-0.1-0.1C1299.5,453.3,1297.3,450.2,1297.3,446.7z M1299.2,464.6c1-1.1,1.6-2,2.1-2.6l10.2,9.9l-7.3,6.6l-7.4-11.9 C1297.8,465.9,1298.6,465.3,1299.2,464.6z M1394.7,520.5c-3.5,0-16.4,0-19,0c-9.5,0-21.6,0.4-27.7-6.8l-8-12.6c0,0,0,0,0,0 c0,0,0-0.1-0.1-0.1c0,0,0,0,0-0.1c0,0,0,0-0.1-0.1c0,0,0,0-0.1-0.1c0,0-0.1,0-0.1,0c0,0,0,0-0.1,0c0,0-0.1,0-0.1,0c0,0-0.1,0-0.1,0 c0,0,0,0-0.1,0c0,0-0.1,0-0.1,0c0,0,0,0,0,0c0,0,0,0-0.1,0c0,0-0.1,0-0.1,0c0,0-0.1,0-0.1,0c0,0-0.1,0-0.1,0c0,0-0.1,0-0.1,0 c0,0,0,0-0.1,0c0,0,0,0,0,0c0,0-0.1,0-0.1,0.1c0,0,0,0-0.1,0c0,0,0,0-0.1,0.1c0,0,0,0-0.1,0.1c0,0,0,0.1,0,0.1c0,0,0,0,0,0.1 c0,0,0,0.1,0,0.1c0,0,0,0.1,0,0.1c0,0,0,0,0,0.1c0,0,0,0.1,0,0.1c0,0,0,0,0,0v6.7c0,0.1,0,0.2,0,0.2l3.2,52.2h-42.8c0,0,0,0-0.1,0 c0.2-0.5,0.4-1,0.4-1.5c0-0.9-0.4-1.7-0.9-2.3c0.6-0.6,0.9-1.4,0.9-2.3c0-1.4-0.9-2.7-2.1-3.1c0.2-0.4,0.3-1,0.3-1.5 c0-1.7-1.2-2.8-2.9-2.8h-10.2l2.2-40.7l0,0v-6.9c0-0.5-0.4-0.9-0.9-0.9c-0.5,0-0.9,0.4-0.9,0.9v3.5l-11.3,13.3 c-3.3,3.8-3.8,9.3-1.2,13.7l10.4,18.6c0,0,0,0,0,0c0,0.1,0.1,0.1,0.1,0.2c0,0,0,0,0,0c0,0,0.1,0.1,0.1,0.1c0,0,0,0,0.1,0 c0,0,0.1,0,0.1,0.1c0,0,0,0,0.1,0c0.1,0,0.1,0,0.2,0c0,0,0,0,0,0c0,0,0,0,0,0c0.1,0,0.1,0,0.2,0c0,0,0,0,0.1,0c0,0,0,0,0,0h10.8 c1.1,0,1.1,0.7,1.1,1c0,0.8-0.5,1.3-1.1,1.3h-9.6c0,0,0,0,0,0h-1.5c-0.5,0-0.9,0.4-0.9,0.9c0,0.5,0.4,0.9,0.9,0.9h12.8 c0.7,0,1.3,0.6,1.3,1.4c0,0.8-0.6,1.4-1.3,1.4h-11.1c-0.5,0-0.9,0.4-0.9,0.9s0.4,0.9,0.9,0.9h11.1c0.7,0,1.3,0.6,1.3,1.4 s-0.6,1.4-1.3,1.4h-2.1h-9.4c-0.5,0-0.9,0.4-0.9,0.9s0.4,0.9,0.9,0.9h9.4c0.7,0,1.3,0.6,1.3,1.4c0,0.8-0.6,1.4-1.3,1.4h-9.4 c-0.7,0-1.4,0-2.1-0.1c-4.7-0.8-7.9-2.9-10-5.1c0,0,0,0,0,0c-0.2-0.2-0.3-0.4-0.5-0.5c-0.1-0.1-0.1-0.1-0.2-0.2 c-0.1-0.1-0.3-0.3-0.4-0.4c-0.2-0.2-0.3-0.4-0.5-0.7c-0.1-0.1-0.1-0.2-0.2-0.3c-0.1-0.2-0.3-0.4-0.4-0.6c0,0-0.1-0.1-0.1-0.1 l10.4-6.8c0.4-0.3,0.5-0.8,0.3-1.3c-0.3-0.4-0.8-0.5-1.3-0.3l-10.3,6.7l-12.4-19.9c-6.1-10.2-5-23,2.8-32l13.2-17.6 c0.1,0,0.2-0.1,0.2-0.2c0,0,0,0,0,0l10.3-11.7c0.1-0.1,0.2-0.3,0.2-0.5l1-1.2c0.5-0.2,1.1-0.5,1.6-0.7c1.6-0.7,7.6-3.7,9-4.4 l8,12.9c0.1,0.2,0.4,0.4,0.6,0.4c0.3,0,0.5,0,0.7-0.2l8.1-7.3l8,7.3c0.2,0.2,0.5,0.3,0.7,0.2c0.3,0,0.5-0.2,0.6-0.4l8-12.9 c1.4,0.7,2.9,1.3,4.5,2c0.6,0.3,1.2,0.5,1.9,0.8c3.7,1.5,7.3,4.5,9.5,7.9c2.3,3.4,18.5,22.7,19.2,23.6c0,0,0,0,0,0c0,0,0,0,0,0 c0.4,0.4,0.7,0.7,1.1,1c2.4,2.1,5.2,3,9.2,3l11.4,0c0,0,0,0,0,0c2.1,0,4,0.8,5.5,2.3c1.5,1.5,2.3,3.4,2.3,5.5V520.5z M1284.3,505.8 l-2.2,38.9l-8.8-15.7c-2.2-3.7-1.8-8.3,1-11.5L1284.3,505.8z"></path><path fill="#878787" stroke="#878787" stroke-width="1.3" stroke-miterlimit="10" d="M1356.5,684.5l-0.3-29.5 c0-0.5-0.4-0.9-0.9-0.9c0,0,0,0,0,0l-0.1,0l-5.7-38.2c0-0.1,0-0.2,0-0.3l-2.1-15.6c0,0,0.1-0.1,0.1-0.1c0.2-0.2,0.3-0.5,0.2-0.7 l-0.4-3.3c0-0.4-0.3-0.6-0.6-0.7l-3.5-26v-5.5c0-0.5-0.4-0.9-0.9-0.9c-0.5,0-0.9,0.4-0.9,0.9v5.5c0,0,0,0.1,0,0.1l3.5,25.7 l-8.8-0.3c-0.3,0-0.5,0.1-0.7,0.3c-0.2,0.2-0.3,0.4-0.2,0.7l0.4,3.7c0,0.5,0.4,0.8,0.9,0.8h0.5l2,15.7c0.1,0.5,0.4,0.8,0.9,0.8h8.1 l5.6,37.5l-15.1,0.1l-7,0l-11.2-68.4c0-0.3,0-0.7,0-1c0,0,0-0.1,0-0.1c0,0,0-0.1,0-0.1c0,0,0,0,0-0.1c0,0,0-0.1,0-0.1 c0,0,0,0,0-0.1c0,0,0-0.1,0-0.1c0,0-0.1-0.1-0.1-0.1c0,0,0,0,0,0c-0.1-0.1-0.2-0.1-0.3-0.2c0,0,0,0,0,0c-0.1,0-0.2-0.1-0.4-0.1h0 h-13.3h0h-7.3c-0.5,0-0.9,0.4-0.9,0.9c0,0.5,0.4,0.9,0.9,0.9h6.3c0,0.1,0,0.1,0,0.2l-1.3,68.4c-1.3-0.1-2.9-0.2-4.8-0.4 c-5.5-0.5-12.8-1.1-17.7-1.2l2.8-83.3c0.1-0.5-0.3-0.9-0.8-1c-0.5-0.1-0.9,0.3-1,0.8l-2.9,84.3c0,0,0,0,0,0c0,0,0,0,0,0l-3.3,31.8 l-18.4,5.7c-2.3,0.6-3.9,2.7-3.9,5.1c0,0.3,0,0.6,0.1,0.9c-0.1,0.1-0.1,0.2-0.1,0.4v1.5c0,1.4,1.1,2.5,2.5,2.5h2.8h39h1.3 c1.4,0,2.5-1.1,2.5-2.5v-1.3l3.6-42.4l1.4-69.2c0-0.1,0-0.2,0-0.3h11.5c0,0.1,0,0.2,0,0.3c0,0,0,0,0,0l11.2,68.4 c0,0-0.1,0.1-0.1,0.1c-0.2,0.2-0.2,0.5-0.2,0.7l4.7,29.3l-1.2,3c-0.6,1.6-1,3.3-1,5v3.1c0,2.2,1.8,4,4,4h19.2c2.2,0,4-1.8,4-4v-2.8 c0-1.9-0.4-3.7-1.1-5.4L1356.5,684.5z M1337.1,598.4l-0.2-1.8l8.1,0.3l0.2,1.5h-7.7H1337.1z M1340.5,614.9l-1.8-14.7h6.9l2,14.7 H1340.5z M1297.9,699.6h-39c-1.1,0-2.1-0.5-2.7-1.3h43.5C1299.5,699.1,1298.8,699.6,1297.9,699.6z M1300,696.5h-44.5 c0-0.1,0-0.3,0-0.4c0-1.6,1.1-3,2.6-3.4l19-5.9c0.3-0.1,0.6-0.4,0.6-0.8l3.3-31.6l22.5,1.6L1300,696.5z M1354.9,697.9h-19.2 c-0.9,0-1.7-0.5-2-1.3h23.2C1356.5,697.3,1355.8,697.9,1354.9,697.9z M1357.1,694.8h-23.6v-2.2c0-1.5,0.3-3,0.8-4.3l1.3-3.2 c0.1-0.2,0.1-0.3,0.1-0.5l-4.5-28.5l7.4,0l15.9-0.1l0.3,28.7c0,0.1,0,0.2,0.1,0.4l1.3,3.1c0.7,1.5,1,3.1,1,4.7V694.8z"></path><path fill="#878787" stroke="#878787" stroke-width="1.3" stroke-miterlimit="10" d="M1337.4,564.1 C1337.4,564.1,1337.4,564.1,1337.4,564.1c-0.5,0-0.9,0.4-0.9,0.9c0,0.3-0.1,6.4,3.2,10.6c0.2,0.2,0.4,0.3,0.7,0.3 c0.2,0,0.4-0.1,0.6-0.2c0.4-0.3,0.5-0.9,0.2-1.3c-2.9-3.7-2.8-9.4-2.8-9.5C1338.3,564.5,1337.9,564.1,1337.4,564.1z"></path></g><g><path fill="#878787" d="M1224.9,488.7c0.5-0.2,1-0.4,1.6-0.6l0.2-0.1c1.3-0.5,1.6-1,2.8-1.6l3.2-1.6l2.8-2.9l7.5,7.7l2.8,2.2l0,0 l0,0l2.5-2.2l6.3-6.4l1.3-1.2l2.8,2.8l3.6,1.7l0,0l0.1,0c0.1,0.1,0.3,0.1,0.4,0.2l0,0c0.9,0.5,1.3,0.2,2.5,0.8l0,0 c0.3,0.2,3,1.4,4.9,2.2l1.9-2.6c-0.8-0.5-1.7-0.9-2.6-1.3l-7.5-2.9l-3.2-3.3c0.2,0,0.4,0,0.5-0.1c0.6-0.1,1.2-0.4,1.8-0.7 c0.3-0.1,0.6-0.3,0.9-0.4c0.2,0.1,0.4,0.2,0.6,0.3c0.7,0.4,1.5,0.8,2.3,0.8c0.8,0,1.5-0.3,2.2-0.6c0.2-0.1,0.4-0.2,0.6-0.2 c0.2,0,0.6,0.2,0.9,0.3c0.9,0.3,1.8,0.6,2.6,0.5c0.7-0.1,1.3-0.4,1.8-0.7c0.1-0.1,0.2-0.1,0.3-0.2c0.5,0.1,1.7,0.4,2.6,0.7l2.8,1 l-0.2-3c-0.1-2.1-3.1-50.8-26.3-53.6c-0.4-0.1-9.6-1.4-16.1,2.3c-5.5,3.1-7.6,5.5-8.2,6.2c-1.5,1.5-13.2,14.2-10.3,46.2l0.3,2.9 l2.6-1.3c1-0.5,2.1-0.9,2.6-1c0.2,0.1,0.7,0.3,1,0.5c1,0.5,2.1,1.1,3.2,1c1.1-0.1,1.9-0.6,2.8-1.2c0.3-0.2,0.6-0.4,0.8-0.5 c0.4,0,1.1,0.2,2,0.5l-3.5,3.6l-7.8,4c-2.5,1.1-5.7,7.7-7.1,10.1c-0.5,0.6-1,1.2-1.4,1.9c-0.4,0.7-1.5,2.1-3,3.9v4.6 c2.5-3.1,4.7-5.8,5.4-6.9C1217.5,497.3,1221.6,490,1224.9,488.7z M1252.2,480.3l-6.6,6.8l-6.7-6.9v-3.7c4.3,1.7,9,1.7,13.3,0V480.3 z M1230.7,435l0.3-0.3c0,0,1.6-2.2,7-5.2c5.3-3,13.5-1.9,13.6-1.8c7.4,0.9,12.4,8.1,15.7,16.2c0.3,1,0.4,1.6,0.4,1.6 c0-0.2,0-0.4,0-0.6c1.1,2.7,1.9,5.5,2.7,8.1c2.4,8.7,3.4,17.4,3.8,21.7c-0.6-0.1-1.1-0.2-1.5-0.1c-0.7,0.1-1.3,0.4-1.8,0.7 c-0.1,0.1-0.2,0.1-0.3,0.2c-0.3-0.1-0.7-0.2-0.9-0.3c-0.8-0.3-1.6-0.5-2.4-0.5c-0.7,0-1.3,0.3-1.9,0.6c-0.1,0.1-0.3,0.1-0.5,0.2 c-0.2-0.1-0.4-0.2-0.6-0.3c-0.7-0.4-1.5-0.8-2.4-0.8c0,0,0,0,0,0c-0.9,0-1.8,0.4-2.7,0.8c-0.3,0.1-0.7,0.3-0.8,0.4 c-0.3,0.1-1.5,0.1-2.6,0v-1.1c4.3-2.9,7.2-7.4,8.1-12.4c0.5,0,1,0,1.4-0.2c2.4-0.7,4.1-2.9,4-5.4v-1.4c0-1.5-0.6-2.9-1.6-4 c-0.2-0.1-0.4-0.3-0.7-0.6c-1.6-1.8-3.6-0.8-3.6-0.8c-0.5,0-0.9,0.1-1.4,0.2l-1.3-1.1c-0.6-0.5-1.5-0.8-2.3-0.8 c-2.7,0.2-16.3,0.5-23.2-8c-0.6-0.8-1.8-0.9-2.6-0.2c0,0,0,0,0,0c-0.8,0.7-0.8,1.8-0.2,2.6c3.9,4.5,9.2,7.5,15,8.5 c3.7,0.8,7.4,1.1,11.2,0.9l2.1,1.8c0.6,0.5,1.4,0.6,2,0.2c0.6-0.2,1.2-0.3,1.8-0.3c0.8,0.2,1.3,0.9,1.3,1.7v1.4 c0,0.8-0.5,1.5-1.2,1.8c-0.2,0-0.3,0-0.5,0c-1.8-0.1-3.4,1.2-3.7,2.9c-1.3,8.2-8.9,13.8-17.1,12.6c-6.5-1-11.6-6.1-12.6-12.6h-0.1 c-0.3-1.8-1.9-3-3.7-2.9c-0.2,0-0.3,0-0.5,0c-0.8-0.3-1.2-1-1.2-1.8v-1.3c0-0.8,0.5-1.6,1.3-1.7c0.6-0.1,1.2,0.1,1.5,0.6 c0.3,0.4,0.8,0.8,1.3,0.9c0.8,0.3,1.6,0.1,2.3-0.4c1.1-0.8,2.1-1.8,2.9-2.9c0.6-0.8,0.4-2-0.4-2.6c-0.8-0.6-1.9-0.5-2.5,0.3 c0,0,0,0,0,0.1c-0.4,0.5-0.9,1.1-1.4,1.5c-0.8-0.7-1.8-1.3-2.9-1.3c-0.9,0-2,0.2-2.8,0.6c-0.7,0.4-1.4,1-1.9,1.7 C1225.6,440,1230.7,435.1,1230.7,435z M1230.2,474.8c-0.8,0.2-1.6,0.7-2.3,1.1c-0.2,0.2-0.6,0.4-0.8,0.5c-0.3-0.1-0.8-0.4-1.1-0.5 c-0.8-0.4-1.7-0.9-2.6-1c-0.6-0.1-1.3,0.1-2.1,0.3c-0.5-7-0.2-12.9,0.5-17.9c0.3,2.1,1.8,3.9,3.9,4.5c0.5,0.1,0.9,0.2,1.4,0.2 c0.9,5.1,3.8,9.6,8.1,12.4v1.4C1233.7,475.2,1231.5,474.6,1230.2,474.8z"></path><g><path fill="#878787" d="M1218.8,520.3l5.9-8.1c0,0,0,0,0,0.1c0,0-0.6,8-1.1,15l2.9,0.8c0.5-6.7,1.1-14.4,1.1-14.4 c0-0.1,0-0.2,0-0.3v-6.2l0-0.1c0,0,0-0.1,0-0.1c0,0,0-0.1,0-0.1l-0.1-0.3c0,0,0-0.1-0.1-0.1c0,0,0-0.1-0.1-0.1l-0.2-0.2 c0,0-0.1-0.1-0.1-0.1c0,0-0.1-0.1-0.1-0.1l-0.1-0.1c0,0-0.1,0-0.2-0.1l-0.3-0.1c-0.1,0-0.1,0-0.2,0l-0.1,0l-0.1,0c0,0-0.1,0-0.1,0 l-0.1,0c0,0-0.1,0-0.2,0c0,0-0.1,0-0.1,0l-0.2,0.1c0,0-0.1,0-0.1,0.1c0,0-0.1,0.1-0.1,0.1l-0.1,0.1c0,0-0.1,0.1-0.1,0.2l-9.2,12.5 c-1.2,1.4-1.9,2.5-2.5,4.5l2.7,1.2c1.7-2.5,0.9-2.2,2.7-4.3C1218.7,520.4,1218.8,520.4,1218.8,520.3z"></path><path fill="#878787" d="M1220.1,555.1c0,0,4.5-10.4,5.6-16.7h-2.9c-1.2,6.7-6.7,18.1-6.7,18.1c0,0.8,0.6,1.4,1.4,1.4h50.8v-2.9 H1220.1z"></path></g></g><line fill="none" stroke="#878787" stroke-width="3" stroke-linecap="round" stroke-linejoin="round" stroke-miterlimit="10" x1="1217.4" y1="560.3" x2="1268.1" y2="560.3"></line><path fill="none" stroke="#878787" stroke-width="3" stroke-miterlimit="10" d="M1213.3,523.5l19.9,6.8l-2.4,7.6 c0,0-26.8,0.6-32.9-3.1c-4-2.5-0.5-12.8,5.1-19.9s15.8-22.6,18.2-25.5"></path><g><path fill="#878787" d="M1250,542c-0.3,0.1-0.6,0.1-0.9,0.1c-0.1,0-0.2,0-0.3,0l-0.6-0.1c-0.3,0.7-1,1.2-1.8,1.2h-3.8 c-1.1,0-2-0.9-2-2v-0.1l-3-1v1.1c0,2.8,2.2,5,5,5h3.8c2.8,0,5-2.2,5-5v-0.1C1251,541.5,1250.5,541.8,1250,542z"></path><path fill="#878787" d="M1240.4,528.8v-1.2c0-1.1,0.9-2,2-2h3.8c1.1,0,2,0.9,2,2v1.3l3,0.3v-1.5c0-2.8-2.2-5-5-5h-3.8 c-2.8,0-5,2.2-5,5v1.7L1240.4,528.8z"></path></g><path fill="#878787" d="M1254.7,533.4c-0.1-0.1-0.3-0.3-0.4-0.4c0.3-0.3,0.5-0.7,0.5-1.1c0.1-0.6-0.1-1.2-0.4-1.7 c-0.5-0.6-1.3-1-2.2-1.1l-5.6-0.5c0,0,0,0,0,0l-3.7-0.3l-11.1,1.8l-1,7.7l10.7,3.5l4.8,0.4c0.1,0,0.1,0,0.2,0.1l2.4,0.2 c0.1,0,0.2,0,0.3,0c0.3,0,0.6,0,0.9-0.1c1-0.3,1.6-1,1.8-1.8c0.1-0.3,0-0.6-0.1-0.9c1-0.3,1.7-0.9,1.9-1.6c0.1-0.3,0-0.6-0.1-0.9 c1-0.3,1.6-1,1.8-1.8C1255.3,534.4,1255.1,533.9,1254.7,533.4z M1249.4,540.1c-0.2,0-0.3,0.1-0.5,0l-1.9-0.2l0,0l-5.1-0.4l-9-3 l0.6-4.6l9.3-1.5l4.2,0.3l0,0l4.9,0.4c0.4,0,0.7,0.2,0.8,0.4c0,0,0.1,0.1,0,0.1c0,0.1-0.2,0.3-0.5,0.4c-0.2,0.1-0.4,0.1-0.6,0.1 l-5.1-0.4c-0.5-0.1-1,0.4-1.1,0.9c0,0,0,0.1,0,0.1c0,0,0,0,0,0c0,0.5,0.4,0.9,0.9,1l5.8,0.5c0.5,0,0.8,0.2,1,0.4 c0.1,0.1,0.1,0.2,0.1,0.2c0,0.1-0.3,0.3-0.7,0.4c-0.2,0.1-0.5,0.1-0.7,0.1l-5.3-0.4c-0.5,0-1,0.3-1.1,0.8c0,0.1,0,0.1,0,0.2 c0,0,0,0,0,0.1c0,0.4,0.3,0.8,0.9,0.9l4.4,0.3c0.4,0,0.7,0.2,0.8,0.3c0,0,0.1,0.1,0,0.1c0,0.1-0.2,0.2-0.5,0.3c-0.2,0-0.4,0.1-0.6,0 l-0.5,0c-0.2-0.1-0.4-0.1-0.6-0.1l-2.8-0.2c-0.4,0-0.8,0.2-1,0.5c-0.1,0.1-0.1,0.2-0.1,0.3c0,0,0,0,0,0c0,0,0,0,0,0 c0,0.6,0.4,1,0.9,1.1l2.8,0.2c0.4,0,0.6,0.2,0.6,0.2C1249.8,539.9,1249.7,540,1249.4,540.1z"></path><path fill="#878787" stroke="#878787" stroke-width="1.3" stroke-miterlimit="10" d="M1235.3,638.6c0,0-0.1-0.1-0.1-0.1l8-45 c0,0,0,0,0,0c0-0.1,0-0.2,0-0.3l1.8-0.4c0,0.1,0,0.2,0,0.3l5.9,47.9l5.2,50.9l1.4-0.8l0.2-0.1l-5.1-49.3l18.9-0.7l-1.7,46.3l1.6-0.5 l1.6-46.8c0,0,0,0,0,0c0,0,0,0,0,0s1-39.6,0-64.2c-0.4-9.3-2.6-10.2-2.9-15.2c0-0.5-0.5-0.8-0.9-0.7c-0.5,0-0.8,0.5-0.7,0.9 c0.3,4.9,3.1,6.2,3.4,15.4c0.9,24.3-0.6,63.1-0.6,63.1c-4.5,0.1-7.7-0.2-12.8,0.3c-1.7,0.1-4.9,0.4-6.1,0.5l-5.8-47.3c0,0,0,0,0,0 h2.2c0.5,0,0.8-0.4,0.8-0.8s-0.4-0.8-0.8-0.8h-3h0l-3.4,0.4h0c-0.1,0-0.2,0-0.3,0.1c0,0,0,0,0,0c-0.1,0-0.2,0.1-0.3,0.2c0,0,0,0,0,0 c0,0-0.1,0.1-0.1,0.1c0,0,0,0.1,0,0.1c0,0,0,0,0,0.1c0,0,0,0.1,0,0.1c0,0,0,0,0,0.1c0,0,0,0.1,0,0.1c0,0,0,0,0,0.1c0,0.3,0,0.6,0,1 l-8,45l-6.5,0l-12.1-0.1l-2.2-20.3h7.5c0.4,0,0.8-0.3,0.8-0.7l3.7-14.5h0.5c0.4,0,0.8-0.3,0.8-0.8l0.3-3.4c0-0.2-0.1-0.5-0.2-0.7 c-0.2-0.2-0.4-0.3-0.6-0.3l-11.9,0.3c0,0,0.3-15.4,0.9-20.3c1-8.8,3.3-13.1,3.3-13.1c0-0.5-0.4-0.8-0.8-0.8c-0.5,0-0.8,0.4-0.8,0.8 c0,0-2.1,4.9-2.9,13.1c-0.1,1.3-1.3,20.4-1.3,20.4c-0.3,0.1-0.5,0.4-0.6,0.7l-0.4,3c0,0.2,0,0.5,0.2,0.7c0,0,0.1,0.1,0.1,0.1 l-0.1,14.3c0,0.1,0,0.4,0,0.5l2.1,21l-0.1,0c0,0,0,0,0,0c-0.5,0-0.8,0.4-0.8,0.8l0.6,47.9l-1.2,2.7c-0.7,1.6-1.1,3.3-1.1,5v2.6 c0,2,1.7,3.7,3.7,3.7h12.2c2,0,3.7-1.7,3.7-3.7v-2.8c0-1.6-0.3-3.2-0.9-4.6l-1.1-2.8l7.2-47.7C1235.6,639,1235.5,638.7,1235.3,638.6 z M1213.5,599.5l11.2-0.3l-0.2,1.7h-0.4h-10.8L1213.5,599.5z M1223.1,602.6l-3.6,13.6h-6.5l0-13.6H1223.1z M1226.6,699.2h-12.2 c-0.8,0-1.5-0.5-1.8-1.2h15.9C1228.2,698.7,1227.5,699.2,1226.6,699.2z M1226.7,686.9c0,0.1,0,0.3,0,0.4l1.2,3 c0.5,1.3,0.8,2.6,0.8,4v2h-16.3v-1.8c0-1.5,0.3-3,0.9-4.4l1.2-2.8c0-0.1,0.1-0.2,0.1-0.3l-0.6-47.2l12.8,0.1l6.8,0L1226.7,686.9z"></path><path fill="#878787" d="M1427.8,602.8c4.9,25,7.3,50.4,7.3,75.9c-1.3,18.6-4.7,21.8-6.3,22.2h15l15.7-49 c-4.8-15-12.8-28.8-23.5-40.4L1427.8,602.8z"></path><path fill="#AFCA14" d="M1513.2,606.3L1513.2,606.3c-1.4-0.8-1.9-2.6-1.1-4l6-10.3c1.1-1.2,2.9-1.4,4.2-0.3c0.9,0.8,1.3,2.1,0.8,3.3 l-5.9,10.3C1516.3,606.6,1514.5,607.1,1513.2,606.3"></path><path fill="#878787" d="M1520.5,601.7l-2.4,4.1c-0.6,0.9-1.4,1.6-2.5,1.9h-1.1c-0.7,0-1.4-0.2-2-0.5c-2-1.1-2.6-3.6-1.5-5.6h-5 c2.1,3.7,5.6,6.4,9.6,7.6c5.9,0.9,10-7.6,10-7.6L1520.5,601.7z"></path><path fill="#878787" d="M1528.6,602.3c-0.2-0.4-0.5-0.7-0.7-1.1c-1.4,5-5.4,8.8-10.4,10c-8.7,1.4-15.9-8.9-19.6-23.6 c-3-11.9,4.8-31.6,30.7-39.3v-41.5h-48.3h-0.5h-0.5c-2-0.3-44.9-7.6-72.4-14.6c5-8.9,10.4-21.1,4.6-22.4 c-5.8-1.2-17.1,6.9-24.3,12.8c-4.2-4.5-6.9-10.2-7.6-16.3c-0.4-3.8-0.9-15-6.3,0c-2.7,6.7-1.6,14.3,2.7,20 c-6.4,6.7-12,14.2-16.4,22.4c-7,12.1-15.2,23.6-24.5,34.2c-0.1,1.6,0.4,3.3,1.5,4.5c6.1,7.7,15.6,11.9,25.5,11.3 c5.4,0,10.7-0.9,15.8-2.5c2.9-0.9,6-1.4,9.1-1.5c15.7,0,25,13.3,35.9,28.8c0.1,0.2,0.3,0.3,0.4,0.4l0.6,0.9 c6.3,8.8,13.2,17.2,20.7,25c27.3,27.3,35,74.9,36.7,90.8h15v-69.9l4.1-1.1c9.3-2.5,18.7-4.4,28.2-5.7V602.3z"></path><path fill="#AFCA0B" d="M751.6,332.9v21.8c0,7.8-4.1,9.3-8.8,9.3h-7.6v-40.5h7.6C747.5,323.6,751.6,325.1,751.6,332.9 M725.5,370 c0,2.1,1.1,3.2,3.2,3.2H743c10.4,0,18.2-5.2,18.2-17.5v-23.8c0-12.3-7.8-17.5-18.2-17.5h-14.4c-2.1,0-3.2,1.1-3.2,3.2V370z M684.3,332v27.3c0,9.9,6.3,14.8,14.7,14.8c8.4,0,14.7-4.9,14.7-14.8V332c0-2-1-3-3-3h-3c-2,0-3,1-3,3v26.7c0,5.4-2.5,7-5.6,7 s-5.6-1.6-5.6-7V332c0-2-1-3-3-3h-3C685.3,329,684.3,330,684.3,332 M672.2,337c0.8,0,1.6,0.1,2.6,0.3c2,0.3,3-0.9,3-2.9v-2.4 c0-2-1-2.7-2.6-3c-1.7-0.3-3-0.3-4.3-0.3c-8.4,0-13.3,3.5-13.3,13.1v28.5c0,2,1,3,3,3h3c2,0,3-1,3-3v-27.9 C666.7,338.4,668.3,337,672.2,337 M630.4,370c0,2.1,1.1,3.2,3.2,3.2h3.3c2.1,0,3.2-1.1,3.2-3.2v-46.4h9.8c2.1,0,3.2-1.1,3.2-3.2 v-2.8c0-2.1-1.1-3.2-3.2-3.2h-29.3c-2.1,0-3.2,1.1-3.2,3.2v2.8c0,2.1,1.1,3.2,3.2,3.2h9.8V370z"></path><path fill="#AFCA0B" d="M800.7,320.9v12.8c0,0.7,0.4,1.1,1.1,1.1h1.1c0.7,0,1.1-0.4,1.1-1.1v-13.5c0-3.7-2.3-5.5-5.5-5.5 c-2.1,0-3.7,0.8-4.6,2.4c-0.9-1.6-2.6-2.4-4.6-2.4c-3.1,0-5.5,1.8-5.5,5.5v13.5c0,0.7,0.4,1.1,1.1,1.1h1.1c0.7,0,1.1-0.4,1.1-1.1 v-12.8c0-2.4,1.2-3.1,2.6-3.1c1.4,0,2.6,0.7,2.6,3.1v12.8c0,0.7,0.4,1.1,1.1,1.1h1.1c0.7,0,1.1-0.4,1.1-1.1v-12.8 c0-2.4,1.2-3.1,2.6-3.1C799.5,317.8,800.7,318.5,800.7,320.9 M773.7,333.7c0,0.7,0.4,1.1,1.1,1.1h1.1c0.7,0,1.1-0.4,1.1-1.1v-15.6 h3.3c0.7,0,1.1-0.4,1.1-1.1v-0.9c0-0.7-0.4-1.1-1.1-1.1h-9.8c-0.7,0-1.1,0.4-1.1,1.1v0.9c0,0.7,0.4,1.1,1.1,1.1h3.3V333.7z"></path><style> @keyframes fadeInOut { 0% { opacity:0; } 50% { opacity:1; } 100% { opacity:0; } } @keyframes shake { 0%, 100% { transform:translate(-68.81px,-16.943px); } 30%, 90% { transform:translate(-65.81px,-16.943px); } 40%, 60%, 80% { transform:translate(-70.81px,-16.943px); } 50%, 70% { transform:translate(-64.81px,-16.943px); } } .fadein { animation-duration: 2s; animation-timing-function: linear; animation-iteration-count: infinite; animation-direction: normal; animation-name: fadeInOut; } .fadein.second { animation-delay: 1s; } /*.shake { position: relative; animation-duration: 2s; animation-timing-function: linear; animation-iteration-count: infinite; animation-direction: normal; animation-name: shake; }*/ </style></svg> 