<?xml version="1.0" encoding="UTF-8"?> <svg xmlns="http://www.w3.org/2000/svg" width="212.921" height="42.634" viewBox="0 0 212.921 42.634"><g transform="translate(-7 18)"><g transform="translate(7 -18)"><path d="M281.472,68.844l20.913-20.875a.258.258,0,0,0-.182-.441h-12.73L274.536,62.437l-14.926-14.9H246.876a.258.258,0,0,0-.183.441L267.6,68.848,246.69,89.721a.258.258,0,0,0,.182.441h12.663l15-14.974,14.972,14.945h12.668a.258.258,0,0,0,.183-.441Zm-6.936,3.6a3.6,3.6,0,1,1,3.6-3.6A3.6,3.6,0,0,1,274.536,72.443Z" transform="translate(-152.214 -47.528)" fill="#fff"></path><path d="M58.029,73.369h-9.21a2.461,2.461,0,0,1,0-4.922h15.89a.259.259,0,0,0,.254-.211l1.125-6.04a.258.258,0,0,0-.254-.306H48.483a9.021,9.021,0,0,0-9.022,9.022h0a9.021,9.021,0,0,0,9.022,9.022H57.69a2.462,2.462,0,0,1,2.462,2.462h0a2.462,2.462,0,0,1-2.462,2.461H41.282a.258.258,0,0,0-.257.232L40.4,91.165a.258.258,0,0,0,.257.285H58.027a9.022,9.022,0,0,0,9.022-9.022v-.037A9.022,9.022,0,0,0,58.029,73.369Z" transform="translate(-39.461 -55.345)" fill="#fff"></path><path d="M135.126,61.889h-27.3a.258.258,0,0,0-.258.258V91.183a.258.258,0,0,0,.258.258h6.38a.258.258,0,0,0,.258-.258V68.7a.258.258,0,0,1,.258-.258h8.608a.258.258,0,0,1,.258.258V91.183a.258.258,0,0,0,.258.258h6.6a.258.258,0,0,0,.258-.258V68.7a.258.258,0,0,1,.258-.258h4.182a5.18,5.18,0,0,1,5.18,5.18V91.192a.258.258,0,0,0,.258.258h6.383a.258.258,0,0,0,.258-.258v-17.2A12.1,12.1,0,0,0,135.126,61.889Z" transform="translate(-76.532 -55.345)" fill="#fff"></path><path d="M216.79,61.889H202.455a.258.258,0,0,0-.255.3l.989,6.04a.258.258,0,0,0,.255.216h13.044a4.923,4.923,0,0,1,4.923,4.923H209.757a9.036,9.036,0,0,0-9.036,9.036h0a9.036,9.036,0,0,0,9.036,9.036h12a.259.259,0,0,0,.185-.077l6.295-6.433a.258.258,0,0,0,.074-.18V73.407A11.519,11.519,0,0,0,216.79,61.889Zm4.622,22.966H210.079a2.461,2.461,0,0,1,0-4.923h11.333Z" transform="translate(-127.235 -55.345)" fill="#fff"></path><path d="M374.925,83.835h-8.08a3.413,3.413,0,0,1-3.413-3.413V72.514h6.925a.265.265,0,0,0,.252-.222l1.36-5.663a.279.279,0,0,0-.252-.348h-8.285V60.275A.258.258,0,0,0,363,60.09l-6.381,6.216a.26.26,0,0,0-.078.186l.041,14.129a9.831,9.831,0,0,0,9.834,9.8l9.475,0a.258.258,0,0,0,.255-.3l-.961-6.069A.259.259,0,0,0,374.925,83.835Z" transform="translate(-212.045 -54.325)" fill="#fff"></path><path d="M476.789,84.844h-7.712a8.2,8.2,0,0,1,0-16.409h7.833a.259.259,0,0,0,.256-.223L478,62.162a.258.258,0,0,0-.256-.293h-8.991a14.776,14.776,0,0,0-14.776,14.777h0a14.776,14.776,0,0,0,14.776,14.776h8.99a.258.258,0,0,0,.255-.3l-.953-6.061A.258.258,0,0,0,476.789,84.844Z" transform="translate(-265.081 -55.334)" fill="#fff"></path><path d="M414.339,68.435h7.815a.259.259,0,0,0,.256-.223l.833-6.049a.258.258,0,0,0-.256-.293H414a14.777,14.777,0,0,0-14.777,14.777h0A14.776,14.776,0,0,0,414,91.422h8.99a.258.258,0,0,0,.255-.3l-.953-6.061a.258.258,0,0,0-.255-.218h-7.694a8.23,8.23,0,0,1-7.607-5.088h8.659a.258.258,0,0,0,.258-.258V73.781a.258.258,0,0,0-.258-.258h-8.659A8.23,8.23,0,0,1,414.339,68.435Z" transform="translate(-235.277 -55.334)" fill="#fff"></path></g><path d="M281.472,68.844l20.913-20.875a.258.258,0,0,0-.182-.441h-12.73L274.536,62.437l-14.926-14.9H246.876a.258.258,0,0,0-.183.441L267.6,68.848,246.69,89.721a.258.258,0,0,0,.182.441h12.663l15-14.974,14.972,14.945h12.668a.258.258,0,0,0,.183-.441Zm-6.936,3.6a3.6,3.6,0,1,1,3.6-3.6A3.6,3.6,0,0,1,274.536,72.443Z" transform="translate(-145.214 -65.528)" fill="#afcb08"></path></g></svg> 